<mxfile host="Electron" modified="2024-02-18T15:37:30.833Z" agent="Mozilla/5.0 (Windows NT 10.0; Win64; x64) AppleWebKit/537.36 (KHTML, like Gecko) draw.io/22.1.2 Chrome/114.0.5735.289 Electron/25.9.4 Safari/537.36" etag="VE3xise0w5w4Dht0c-kL" version="22.1.2" type="device">
  <diagram name="Страница — 1" id="YQCfeVRgsTX5ofReSGUs">
    <mxGraphModel dx="1098" dy="790" grid="1" gridSize="10" guides="1" tooltips="1" connect="1" arrows="1" fold="1" page="1" pageScale="1" pageWidth="827" pageHeight="1169" math="0" shadow="0">
      <root>
        <mxCell id="0" />
        <mxCell id="1" parent="0" />
        <mxCell id="5o37a4prMIWbe8hypCf2-4" value="" style="shape=image;verticalLabelPosition=bottom;labelBackgroundColor=default;verticalAlign=top;aspect=fixed;imageAspect=0;image=data:image/png,iVBORw0KGgoAAAANSUhEUgAAAYcAAABKCAYAAABQH5igAAAAAXNSR0IArs4c6QAAAARnQU1BAACxjwv8YQUAAAAJcEhZcwAADsMAAA7DAcdvqGQAAA/NSURBVHhe7Z1/bBzHdce/p5+uZTqJLP+Q3dqBckfL9Dlp07SIydptncjJUXZKOBH/6R+Cg/aINIVJ1CUcFPxTKGAICEgDSUO2qME/+s/JEljIuhPs1ICb6lwYDmq3F8rhnZ3YcS0ndtwokq1YEsW+Nzd7N7e7d3tHkRL39P0IT9yZ2b2Z3Zt5b+bN7FxiSQAhhBDisM7+JYQQQmrQOBBCCAkQcCslEvaAEEJIV9NqUiHUOCyd+7UNEUII6UYSG69djnE4ZUOEEEK6kcTGnpbGgXMOJL5UvosB6f1oD0hl4InXbIIPPe/e76Jig428hql75Xp/uv3shs/0fU7liS/W8m6ZPyExpIlx0IkHCmUty/cxcschDB8/ZUa6S+cOIX38JyHnRUjlGeTwMLI4hCMVX9rdDyP91Aim/PEiahhST30VZZO3yitSlmfEcATPpVDWpgAzMzM18RNuHMI+h0JZa4I70Zvywrsw/b1djemuKCHxlcJBYM8YhtIvIld4vTEdOzH+d3di7NvPOnH691nsfxSYfPKvkKydvwOj33PDFMoalwjoViIxZReG/vJJDG7oQeIboryXxes4cgAYHtyBzFceRvHA0aDrKfME8ngIIwUbVipllO7+KnYnbZiQLoRuJUpsJfMPp7F0XuQrTyNRMxJh53r44itHkYMqeTnOPIjsCwcd15KH5PPo4yj9fdichZ73E0zdI3lr/vfoOd71FMpal9Zw5EDij/Tul84fQvYfn4bbwY+ikj+I4guPIbXhGlHuD2EGLyKXf92mOiS/idk9B7E/74VTSBtDooEdGP2BGKhXH0e/SSSkO6BxIPGk8h0MfOMZGxCMq+d26BREe6hL6UVkD9vRh8rhr6N4oBAyQhB78Mi3gL95DEUTuh/j3wbGHv5O6LmEdAM0DiSeJDMYLj0kPX7t9YvsPIjhJ7+JptMAtRGCyiMoVArI4XGMZ2y6knnAupZsuIH7MS3GwyP5yHMoy2ii9pk7HwP2ZJrnT0jMCH8J7vwHNkQIIaQbSWzYgunp+hLWbDZrj6qEjxz88xYUSmzkGYzURgiu3IcpnU4IvYZCuQIlgvCRw+KHNkQIIaQbSay/ehkjB0IIIVc0TYyDf/xBoVAolO6S1oS6lQghhHQ/rdxK4XMOLbZxJYQQEn9U16+ocXjpL4bx9uED5vjmB/fgc/+UM8dhnDx5Ei8VD+PC+bM2pjU33XoX7vrMH9gQIYSQ1WJFjcPR7QlsXw9cJ7LpE1tx4r33cWIR+PKJ4AVqGH708n/g7Ct/js3r2vtluZ/3PIqhvfttiBByeakAAykgnRct4r4tGEFhBBgsAeVjWN23ApdZPpdLVta1R5RxaHu1khqGz964FVf3XIsfnUvg5V+eMscap2l+flh82hiGTetO25hlUpmq3oUR+SIbwlY62VDncuKVfcp5BVfjBkS8vy7uvTZsCyqMSJx3nXeOJ3pqWHxABuS86seRGOB9p2H1xztuld4pU3vrijdQn2xbdD9bFa2mYRrIp4G9y8y3XbzyjS80lsuUQ6SGNAh/2Ct35hKVNYa0ZRzUlaQjhk3r1uPEb87iS29fwP0/O2uOr73hRvxOzxZzjsvi+Y/Qc80iUvfswu1/+kBT2XH3fVi/aZO9KoTkqFj1SaBfZEm+SMUcy2hFRdMGpVLExUD0i3XOSaXuRCnrNaV99Wu0UZacbd78z2OfrehuvJfWcK58Zym30ZA1T1T9WU79CkUa1Jj8cfcXceuObkKY0hMsWidND1zS9JLMuPwn6avWLp3y+XWEKvys9Ig9IzklbSdvdceUdIgSg9Vjj1UvazxpyzjoHMP2DdXj227Yhmdvu8rIp3bsMHG3XHM13v/hf5pjl/UbN+Lj22/FhXNn8cH77+L8R78x4XNnPjDhpQsX8LGbfhvr1ovlWS5exfAU4pqnD5iQnsr+TmqiXKO219v0Z79U5OFGY1yjPC+9qV4biCDZ5nlkDRFVf5ZTv0IozImylTrWzNWSGbIHghqGVE7qnuuakYNh6cAsXLSVCieqfNNivcbESBakbDk5z7Nxo1JG1RcNrHJZY0rbbqVNW6/HVdu24bYdn8Ku/s8bueUGibvuBhPfig//7z38+p23qgZBeh2nf/lzEz5z8n17xkWiSq4oSjEuaM8G0nvppP2OTkhl319tiCWp3LttvFIUY+ENq7X35vX23HgVt6enmAYmyoTEi6j6s5z65WdB6tGwW8l8aG/cIEYhYBgsvWKk5ss2sMJElU+tgdqAQSnbrHQgo1jNssaUtoyDrkp64xfv4sfzx/HKD54PyGs/fRNbf//z9uw6agguLJ7HLZ/+Q+y870Hc+nt3ayw++bl7TXj7Hb9r0n1z4lcG452OdqSy61BZFfyEr7L7XUWe/zTMreQajH1iGI610XDI2iOq/nRcv9rArTvaGzf1SeInRbGG+exTUr9KCzZwGVCF3y6Xu6xrkLaMgy5X/cxbSzj1rQQ+MbkFNx/qxc3Pf8Eca9ydC6dDl7R+dPoUXv23f0Xp6FNNZeH5gnE3XRQV+VLj1gNWd9iwPLMjNtwO2uCRNXaiKVGjKM9gmIYdo9EWaSSq/iynfkXhdja8ToW6dkZlpKJ5+RdNdOLiXHGkLDq10O5k82Ut69qkbbeS8kd/fQFvvlPflE+PNa4Zm6/pwc4v/BnSX/5aU+n94ww2bL7KXrEcpBKE9abjgHEVWVePUerSwFy35xEJ9zsTz9rgvUn5ZrTrKtLP0knFhlUcJFa49SeMqPRWaK8714FlGZ2VnrdoY3ellLp++tr/+aWOiCqfNwnd7mTzapY1pnRkHDolIcPPdes34H//+0W8+txhvPlfL2gsfvrSv5vwieMvm3Q9rylmsku+XDOktYqswZculcBbIRE7pNB5GQl4x2b1kHdfIjp0nxWJwn0e2lvyenUNz0nEP+egvulJaRRc0hpT3PoTRlR6C3TC2d9ZaUlS6p1OAouCNQZCJFcUJd5sxvgiccvn1xG6lLU2CS35z8qIZ9DqDl2tVDtX2oQxGqtc1pjS9ktw/3N4GCffeAq3Z+6zMcCPC881HTk8e/ifcf2v/hZ3fmkPTr79Bs6cOonNW3qw7ZO9ePf14zh75kNc/fHrsGXrNpSOHsC5M2f4EhwhawlVpPMy+ljOC2aqoFd7TutiyudyKcq6BlFdvyIvwd31YA4fu+1rxiC0y+K5c/jViTexbuMmMQLXG/eRhjf+1hYTTqxbh5PvvIULi4t4b/GzEneHvZIQctnxXEX+uYQoVNnqqrl2VgldDMstn8ulKmsMWbWRw3OFfwHKj9hQNJs/PYuBP3nAhgghhKwmUSOHjvZW8huId+a3mhFFGLq30ru/OGFD0dx40y3o6emxIUIIIavJihoHxTMQSquVSoQQQtYuUcah49VKOlJQo0DDQAgh3cuqLmUlhBAST2gcyApSwdRAAomLWT2y0hRGZPg80PBuFiEkmrVvHCpTGEgkMODbo35gYMp5P8cqJS/OXuNXUoURe46X3iCXQIGEltvNt8l9tCqjUX7OOXrPgXyEhjhfPkpUXr70hu/DUpnai7F0Hktm3XkBI8759e/CjR9pfHE1UIZE9CrFsHt1yUxjKZ/G2N4W58QF+3yatoWodEI6IB4jh/4s0rm9zZV35QhyyMq/XG1Xa70mW9pXv0Yayb5SP2qbUfRPory0BJ2Pr8oxjK72C5LJ3Rh2y2jKPYzdXr6h9+GUsyxXp+oKtTI1YLamzzv3kcdco8INIywfpUVeuvdMOu/lk0d6zP99FMxO4pPejrC6jUft/DIm7XdRGDEFNvHlyRIG/dq/oQyTKO1bAcWWGcckxi56F+s1QVRbiEonpE1i4lbqw/iE9P6atO6K7kE0PI6hdBG5mrbrw9Cwbr9SDRdEc6Wb/QbCJSOJ3U6ZzGZfw7trOx2H34dDshf1fSYrZuulyfJ0dZcAS2a6MRxGZD5KQ16C9MDrL6Km0Ods+WQQYzDT7xi6hvPLmC+m0ZssYG4miyEbn5SH0V9aaK785fkU073yfKojnbod0dGHjmwkfu8YisUxpLwes+09V0ce3uhHn3s/Sl2xX3/rthCdTkh7xGfOQZRNHoMhboaqkhwWrZQZyqKYO1JTNqnRCenh7kfBjBomMe77DQRVKDUXxiUaeid70yjafeMLczNI1/ZzaX4fNYwC7hPVLGjv3yhckxLEf38pUaImoY18FDcvP/4Rj1BZKKHfMXRVrPsqMYehpRCjpQaoOC+mw8Et92DJjkSSGJ3IYmbOfvlatuyEjPQkfnYS/Xa0cWy0jJHUPCZqIw8Z/Vh3kvvcY0/TtmCJSiekDWI1IZ0ZD3EzuIoqM4RsMYcjNR2QwVB2BoOiGNMTo42Ky+9WOuZLXy20jDPq+qlgoVTvRTe9D1dZ7utD2S1nM+Wt+O+vLEpU48Py8R5oq7xqSK89JZ8w287zEuV9TPMfwly7czp+15Y3V1B7blWjmq09OIfKAkqQ79u7BzWInvFJ9bUepcSM0LbgEJVOSBSxMg66zfTscA77nZ161UXiuRUSiUFRDUXk5uq/U6CNpB+OEr7sqMEqYaEgSjo9VOtNN70PT1mqcnd72abX7ZszaINyWD7ehzTLq4a6c/ahr9zp/IzeczH4Q1uqzFsZuIaRRdXQzxUaXVMB/EbRG7HUXFRdQkhbaCAqnZAI4mUchKTdo77uIikiW5v4FMlnUZxRlWeRRnIszKVxGckMpTE2KKOZ+rChvfvIQ3rF3iRxxvz2z5g7aSwURnwrgBqYx1xYPn7XUiAvwfjymxsG47ZxPqcyNeKMFFSh96Mv5Sn4aqwxiK0Uts+1ZXrDg4MoTY43fp+eATHGJHzi2bi9umy//sa2ECQqnZBWxM44qFKc9vaoNy6SydpPJhvU/WAPW+K6UIy06fZYCUwZ/S6lNu4jM11d4WPLmhw9ZsP1+xhEfTQSoDgjI4WQfBpccRZfXkaRy7+xVD2vhiWT3ufYKNHTzrm6QqlqVDL6w++D1fjUWBp5/3bL7vdiLnPcV7raq7/fzJfUEEM2oa5DU54UpnWFk/18I2YuqWp86/M73YLTFkKJSiekOR3vrURIM3RpbWp+wr7nsAroOx1N50JasNzrCOliVNev6N5KhDQjOTqLydLgqr0hbSai/QsLolDDoKue2ppAJ4R4cORACCFXIBw5EEII6RgaB0IIIQFoHAghhASgcSCEEBKAxoEQQkgAGgdCCCEBaBwIIYQEoHEghBASgMaBEEJIABoHQgghAWgcCCGEBKBxIIQQEoDGgRBCSAAaB0IIIQFoHAghhAQI/T0HQggh3U+r33MIGAc/MzP1iwkhhHQn/LEfQgghkdA4EEIICRDpViKEEHLlwZEDIYSQADQOhBBCAtA4EEIICUDjQAghxAfw/wtUdK+aQHBlAAAAAElFTkSuQmCC;" vertex="1" parent="1">
          <mxGeometry x="23" y="20" width="391" height="74" as="geometry" />
        </mxCell>
        <mxCell id="5o37a4prMIWbe8hypCf2-5" value="" style="shape=image;verticalLabelPosition=bottom;labelBackgroundColor=default;verticalAlign=top;aspect=fixed;imageAspect=0;image=data:image/png,iVBORw0KGgoAAAANSUhEUgAAAX8AAABrCAYAAACfdIJeAAAAAXNSR0IArs4c6QAAAARnQU1BAACxjwv8YQUAAAAJcEhZcwAADsMAAA7DAcdvqGQAAA2jSURBVHhe7d1BbyNnHcfxf2B7AcqLQM5Sgi8c69wQRXJWQlGr+rrigK1SqbZURb3kuJcqEnIWFbA5VLlabRWJJkYt4pb0DVhptTbwHmjh0qLwPI8fT57n8czEnnR35/F8P6tHa4/HdmYy+c8zjz2/2bpWBABQKd+x/wMAKiTp+W9tmfsAgA2RN67jFf/rr/9tJgIA4rb1wg/XKf5fmokAgLhtvfBibvFnzB/xmv1BdlXvRvdwdNt9/A/7QCCYb966Mvamq/uL2R//wpkv53WBiAXFXw/802gxtL9J5ycfSevzL80R6/XXH0n983+lzGfby+/K1My3aI+lWXtTLj5/VxrmMXVfzacL//YHrznzqtd9+2dqB5Dz2jRaKZvIcDhMWsgv/mnPp9HK2uSncn97cf8VGfzpFf9xt2lp03XTzO1P5ehtkf77v5Va8rh63S/eFfngrzJLptFoEbRbMOyDSL0i+795X/buvShbb3xqp+X47B3Z1vMm7a1kmCcxm8rk5dfkQc3eX6htS/2zL2Rq7wKbgGEfWrSt+cev5Pob1X718bygm51A2ryKHtrR8ybt92aY50Z4221aOI1GK3vLR88f8Ws+VsX8I2n/+ePl3vw6TA//Qzmb2fsL5ojgx6JHmIBNQfFHnGbvye4bn9g7yrdSoH8pB78T6f36Pbmp/59I56V3RF5vSjgaBMSM4o841ZrSmrwqW/d+MG8vfSit999cr0DrHYgq7Jfm84D5ZwC1t/4u09c/VPft6957VeQvX8nFWz+aPwfYEP5JXt/8x0wEAMRt6973ZTC4+Ypnu922t+b8nn/4eQGNFl37RDpJr91tP5fjf6bNT6NtaLuF3/P/33/NRABA3La++701ev4AgEoIin943ECj0Wi0OFs+b9gHALA58oZ9/DH/nPhPAEA8dE1nzB8A4KH4A0AFlbj4z+R4d0sduiy33ePFyfd2nt3j+en4s2PZDebt6NM27fSb5yl6mn7e4n872XBfx7zAjXFHTQvnf9bylie8vbDKMrnz2OauP3f6ctsV98dB5OzvPPNvJusxexflV+LiX5PuxbXojySup31pNPoy1bdVu+jak/hnZzKStvo3ugnjcubTz5s8shtkoy310cP1CpR6Tnvy6OY5agN/NGlIw959roosj3bbMmWuP2e6fcz9nVxPWzLa7twtWA3lkreNFd3+UBpRD/vMzkYirQPZr1/KaCmKUZleyWX9vs172ZGDw7r0jtYpTzuy35LktcdHPam31IRSKLI82hrL5K2/W9TuS93exKbI28aKbn8oi4iL/0xM7X9Qk+Z+Wy5HZ/Me6mVPthdDEXsT6R80zdxGcyDnsjcfyljRdvdQ6r0jGZsecl8OHtgHyqDA8mi5y5S1/tzpum335HL+yNz4VIaNHWKPN03eNlZw+0M5xFv8zZBPa37Vpea+tC9HcqYvtRQORTz0xyGbB85Qxkqast8eyp4qdvXDbulifddfHi1nmbLWX9qwj7tDeLQj04vyrR/cXd42Vmz7QxlEW/z1kM9lUnz2ZKj6oaPTK/uopYciLq/8y+/VunLSGsnRmb2/Ar2BN6Qt+85BRGkUWB5tpWVKW3+uxQ7B7Ahy5kPc8raxgtsfnr9Ii78e8rmU9rnTEz1vy+VQ7wIcGUMRte6hSM8OW5gC53xgrJgdS8P5EFRt4BfXA9VfLidvebRva5lWHcrRr3UusrfFB76bamkbc+Q9hvKKs/ibIZ++uMP5ZuhH/++NWYucpw5FNGWgdhbJbfNNFfsc1bZHLZmelOWD3VW4y6PdYZmy1t9tY/7NgUz7E7UD4Cufmyncxlx5j6GsiHcAgA2kazrxDgAAD8UfACqI4g8AFUTxB4AKovgDQAVR/AGggij+AFBB5S7+OiM8ObGoY4LIMvPmM7PEg8x/zb5OXh757HjXex9v3ufttp8/bX3Y55jlCZK4yPMHqqfcxV/HBiS58TaKwAse68tkTxWovFyRtMx/LSePXBd+c0bs4n2up9K6sqmhZUGeP4A7iHvYx+4cJjm5ItmZ/1l55GM56on0T9xYiJp0B2VLrCTPH0Bx8Y/55xadjMz/hbQ88tkTmTRsVHTZkecPoKDN/sA3LfPfq/5qcm4euXMd4XAMvSSK5amT5w9UXfzFX/fU7c1QauZ/WP1rQR65F4dsryOsC515sITCn39F5PkD1RZ58R9LR/de+2nFOSPzPxz6Ufw88qaouii94ApgZUaeP4B1lbv4668Y6rFl03u3hcUbe34kO9NrGegxa2+6/lpoRua/LopLXVQ/j7zWvZCp6k0nr6d+Bmk9KPGQBnn+ANZDnj8AbCBd08nzBwB4KP4AUEEUfwCoIIo/AFQQxR8AKojiDwAVRPFHSdlojXWDi56HcUeItEZsyl38U3Pk3bNIg6z+xfxZefX2fvT0cnrLo9dDWHwy1k3SUoqVKWLOPHo9Lr2X4k0L3ke77b2Cx9OulTA7fii9+rlcD5o584+lk0x3t4us6crSz2avWZDHW94UzYFcn9ejOiscKH/PPwwUcyMJ0rL6b8ur3wS1B9Jyl9kNsFtIXTfZ+fvm4jX6jF5nXZ/LqV8406S9j5bzXjoqup7EbpxLvRdel8DGai9Oz86Yf9wxP7CZbs4utlU8a3rC+9mKBOOlaB5IX3qydsI28JxEPeyTntW/Rl59tGrywFlGXRzD+Ins6xhYXhT2PPq6P/WzfpqDW7J/lFvfRwtjt1VPWXfo57ZlJ9wzm0whZ2eWOv9YToc3wXQ1tUIakydqSbKmZzDXLBA5U0cvN/sIfeSwOFpRRzYPFxEj6qij03GOHNwjGv07acjkSeY7AaVS/uIfZsokh/HZWf25efUbona/LpdX85Ci8elQ6ve90p9/HQPNDW3TvXdVAb2XcGXm+qzwPlpeQFzKUcvsyUQaWVlKaUc5WlYCadp0L79IX7OgK93DtgxPbfXXP2/7ULrmPWrSPenbq5apo46hyGFy1OBEXus5nd8JUHbxDvu4RWApsC0nr35T6GUe6mGZmTyZBNHMWevGLXph/n5eemf4O1hEXKe9z6IS5r1XQqeyqlfwrpqWZ935M4RDUrqAJ+tT1/6htNOyrk18uNquFstlQgedHcv2Tv5RBlAi0Q77pGb1n17ZR1UtWiWvPmp6BzeRJ2NVgOv73vBM5rpZFL0wfz8lAnoV07T3WbxI1nsl9NCKTmW9sD3s29wyv7kCW8oOLGv6QnJkMO8wnI79YaMlWZ0RbZ3LXgLPWaTFPyOrf6jLj7VKXn3kmvt16e2poxu/27/auvHy9+01DIILsI87/n3flZyucr2EtKx/842b7EJuhk/c10mdf1Gs5/fMDs8U3qzpGZwhKXNVtL09mfQPlrcbvYMwO4rsD3XNcNVO5m4GKJU4i78ZbkjJ6rc3K8Msc9qQzwrrJsjfN9cwMPftkIZqe+IfUXguh6qnv+L1EoL3MgVZ/es51xvwvu65eB07KWv+5sDsVcz97V5dzu2nwlnTE+6QlHvNAv0tqkbDfIbhUTuwQz2MqGaetNtqB2Gfq5vzlVe90/U/ewHKizx/lJL+6un21eH8e/7Pij7Poei1iO/yXOAp0DWdPH9Ep9Y9kf5k75me4Ws+6C3yBQFd+PW3hu76QTTwDNHzB4ANRM8fALCE4g8AFUTxB4AKovgDQAVR/FFSNir6GX7bpzDy/BGhchd/c2ZncAKQnuZlq2fk1gdFI8n0Xzzutcj+cFPXQbgMGeslb5nJ80/nLW8K8vwRofL3/BttqY/CvHeHOaN1zUz/pXyWVfNlSoI8fzM/ef5AcREM++zIwaHqVWX8VelT/6uX6U+ev95BkOcPFBfHmL/64z+XvZTD8+w8+dxMfzfbRbe8Q/qSIs/f3l9I0jkDadO9bB/y/FFN0XzgaxIXw8NztxAshYrlZPqHwz4x5rHo5SXPv5hwSIo8f1RQNMVfJyuetEZydGbvKybtMSkyVcv0J8/fQ54/sJZ4ir9S6x6K9Nwhh2pn+pPnT54/UFRUxV//wQ9UgTHMkEPBTH93SMK0lK89xsAsb9qQD3n+adMT7u+fPH9UFKmeKCXy/IG70TWdVE9Ehzx/4Omi5w8AG4iePwBgCcUfACqI4g8AFUTxB4AKovijpGxU9DP8tk9h5PkjQlEUfxM3rE+osW1+QpAtDs507/FC2fSRWPqZ9boIi0+Qs2/OknXWR1qxKrTOgvfRbnuv4HHvBC+LPH/g6Sp98Tcn+4xaTp6KznPfVgVApHthp+n8GCdz5UQeFsumjwV5/mZ+8vyB4kpe/G0R8E6eacpA/cFKVnywmnpWMJs+HuT5622DPH+guHIXf5PIGPRotSSJMYXuiRbKpo8Lef72/kLWNpE23cv2Ic8f1bSZH/jmRfi6h/z2sD/seEZBh5+R519MOCRFnj8qqNzF3/TagrFkLS+jPes5G4c8fw95/sBaSt7ztznz3rcodO+vtzTGfaNINn2cyPMnzx8oqvTDPiZnvjW6GUKYfyVFLnK6i2tn08dKD1Wof8tDPuT5p01PuENSenMizx8VRKonSok8f+BudE0n1RPRIc8feLro+QPABqLnDwBYQvEHgAqi+ANABXlj/gCAzZE35p8U/zTD4c0TAQDx4gNfAADFHwCqKHfYBwCwmej5A0AFUfwBoHJE/g/Io6rSKtITyAAAAABJRU5ErkJggg==;" vertex="1" parent="1">
          <mxGeometry x="510" y="20" width="383" height="107" as="geometry" />
        </mxCell>
        <mxCell id="5o37a4prMIWbe8hypCf2-6" value="" style="shape=image;verticalLabelPosition=bottom;labelBackgroundColor=default;verticalAlign=top;aspect=fixed;imageAspect=0;image=data:image/png,iVBORw0KGgoAAAANSUhEUgAAAVsAAAB7CAYAAADaFCNvAAAAAXNSR0IArs4c6QAAAARnQU1BAACxjwv8YQUAAAAJcEhZcwAADsMAAA7DAcdvqGQAABI4SURBVHhe7d1vjCPnXQfw7/65uzR3ey1t0qQKikJlbzd7bvkjKJytBggEsK+FVdP6TVWtQOAlFMUWYRVU7csVoloJeStR8CIR7QveuE10KFlvlNJKFNZB0KopNXuns9uS0pBrk5Ze7pIj2ds1z/P4GfuZ8Yzt9Y5nbc/3c3p0nvGM1zu78/Mzz8x8d6IugIiIBmpS/09ERAPEYktEFAA1jDAxoaeIiOhIvAZmm8W2vveankVERP2YOHG2l2J7Xc8iIqJ+TJyY8Sy2HLOlo6l9DgnxaS4/0WVLfPZb+gkXbcs+h/UHWtNmSzySReKBz6GmV1Uc61tt6dlOz/861p9tzLe9N7nsA1kseX39Tt8HUR+MYisHbtnYDtP+EUv3P4X0pevqyKi+9xRil77jspzXspPIfkVPX/oM4uc/g6p67jp2HptzeQ3ZBGM5uV7lI7Lg6ufN51T7ErIROf93EfvCEtZr1uvINodlr6//aMRYjo2t1wZsbGw0m6lVbN3WY2Pr1nAOs1Fr+iEU/uYh+/Nm67as1GnamidZ09E/ws5lUXD/XPSCreet58wmC+unzyH3l1805un/vabZ2A7bOuAwAh3BQ1j4gyeQmp7BxCOiiHV0mGUPKRJF7PnLqMrHzz+OqPwaVvuQMRSR/CxK+CiWtvU0UYA4jMB2pJb86xuo3xLtt59pFDdVSPtZ1uI1bc6TnPP1/3IoQH4Nq/3zpyAHBBrEe3hM94L1HPtrSNY0G1s/zRt7tuQP0Wus33oKmb99Bl07jodZthe1Kirn3wc5QtFV5FPY/PiTWCvpaaKAsNhS/2p/hcQjz+kJoVPRO8yykhoaeBJbxuUItdKTKJ//IOJ6uuE5LM09jtinzR5sZ5FH/wz4k8dR1tNEQWCxpf5FkkhXPoqJ6TONNvck0k94FL3DLKv8BgqXH0ZxTi8vWvTzD6P6xMN6XNaa/xeYv3wDhaRezfacbA9iXQ3mmsRrP/17+jFRMFo3Ndx6Xc8iIqJ+TEyfRqHQuuQrk8noR2bP1jnOy8bWdxOH9rbepdHL/Lbb8mxsY9I6aPVs99/Qs4iIqB8TU7f30LMlIqKBMYqtsz/MxsbGxna45q05jEBEREfnNYzQGrPlXyIjIjoSWUs5ZktEdIxYbImIAjCExbaG9cSE6I63t8S6de+mXiax3ggUqa0j4VhWJTvp+a31BDlPrmf9r2cr5us4oqG2l8Q85/LjZhDby1xGN/NnY85vbwmYb4VolA1hsY0gu1NHvS5aNY94PI+qfCzaTlbf3FnbQhEZ8a/YunfeWE6uV1nVhSGeQay4eLidVqyTqay21hGFYbUSd9yTP6YGsb08fzbGfP2c+fOuV9MoRpf8CashOmYjOYxQ2yoC6WUsxMoomkklluouyrFZfd/9PJZXYsitHWaXncdCGs3X3l7LIZYWM0JhwNvL9rPpIjKLmH5INOpGsNjWoGrthQiSCxmUi1uNXlI5h6h1+JmqIL9sJZMIyQJKSB0qNDqaXUEst4Zt1UvLY/mCfiIM/N5eXj8bc75s0Zw9iWv7Ijbi871FJxINudErtmoIIQ1Ra0VRWECmXMSWTHVyHn4u2scXk8vG4WtPkljIbCAlCkBsJdtbT2yM+Lq9vH42bsMIZgFenUd1J3zbnsbTyBVbOYRQbu6QKWyIvlDx4q5+VpOHn+Xdxp9JsUSy2EwXsbalp3sgC04cGSwYneTQGNT2cvvZmKwCrApvh+WIRsyIFVs5hFBGpmT0hkoZlDdkyTV4HH5GxKEucvpQVe30xgk2QRXyuHFiRxScnXpB9NnCaSDbq9ehAflaJSA1wRNkNB5Gq9iqIYQ8zOFYNZQg/7eNCwIl18PPJAqiODcfq7Pdeh3RosU0qpthORHWC5+2l9fPptuYbbKAar4iCi4vAaPRx9t1iYh8Imspb9clIjpGLLZERAFgsSUiCgCLLRFRAFhsiYgCwGJLRBQAFlsiogAMZ7GVWadmdur2krro3QpGqa0nWhfCi6byV+U6xjzZbEEqjufd1wn53Up6ezDPlsh/w9+zlTulTIqq1lFIyslE484l63bdegmxXBSJtV1H4EkelZRVcLexFC0iLV6juc6uvuveXEfeHuosKGHDPFuigRjuYisLrSqSO2jkhm9jLQfkN81bceVtpHnAmY8g7603d2zEMNtcSawjK7eTShELe/gJ82yJBmGIi20Ri7ZCK9SuoBLX8Yomr52ymTCl4//koanjcNdUW19lfqrEPFsi3w1vsRV7XToveliOXNp+JQv60HThYmPHtiqJscOr4QnmpyrMsyXy1/AWW9mDzRZQTRcRtQqjS8yfInu8+qGN6gk7ekai1ybHbDMbFxtjgeYOzx27hXm2RL4a+hNkkewm8pWUPkOehNifHb1defIrJ+N1WidklMZ81cuSY7/mMbFbEaY2zLMl8s/QF1ux1yEr9jp1xYEouJHsTqO3ax1qqoDUOnaW5x1jgKuY11cwIHIBaVGwG/NFk2PBtpNs5I55tkR+YZ4tEZFPZC1lni0R0TFisSUiCgCLLRFRAFhsiYgCwGJLRBQAFlsiogCw2BIRBWA4i62848u82F209lCUGtYT4jkViagfO9aRLbG05JKbmsD6tsvXWG+fZ2aquubojpMgtjtvTqCQGt6erS28xMym1WpbKCIj/slbSOVdZq1lzUxUdWeZM/CkvoOsvF/U+TXkraluy0Yahdaeo1tFendLlJsxM+jtztv2KKRGYxihLZtW7vNFIL2MhVi5maN6JDJn1bzP38YtR1cUmsKY3/IbxHYnConRGbO1pUXVoPb5CxEkFzIoF7v0MJ334Ft/jcF2z34F+ZW0+7JeObphMIjtThRCo3mCTB3K6uKn/rqCS+yiyXk4awWh2A6Z0yimXIYR2mIXjXHKsBUPv7Y7UQiNTrE1YhFVtF+z15SC/IM4Rz6klT04/bCNLV5Qj1PKMUr15Jgb9HYnCokRKbZGNq06lC0jUzJ6TKUeDmm7kTmr+mE7txzdMAhguxOFxPAWW9t4n5FNqw5l87D+jJXS7ZDWOXYoL0GSg5DmfJmzKnurbsuK123L0ZWB5ekL43dYPOjtzspMIcU8WyIin8hayjxbIqJjxGJLRBQAFlsiogCw2BIRBYDFlogoACy2REQBYLElIgrAcBbbY8qztZotp1a+FxVG08t7GnHMsyUamOHt2dpCYgLIs5VNrZtBrLjoXhS6vadxMOjtziQaCqnRGEYINFd1HssrMeTWulRRl/c0dphnS+Sb0RmzHXSerWzRHMpyfrKAElLde6229zSmmGdL5IvRPEHmV66qc748FFYriJddHvNeaz/82u5EITQ6xTboXFVxCL2ZLmJtS0+7Md7T2GKeLZEvRqTYHk+uaiS7Asg/Aqmn7cz3NK6YZ0vkl+EttrbxvgDybGWzxmybkiiIgtLk9Z7GyaC3OyszhRTzbImIfCJrKfNsiYiOEYstEVEAWGyJiALAYktEFAAWWyKiAPh+NcK1a9fw1fLTOLj1lp7T2d33vh/v/+lf0FNERKMrsKsRZKH9zxf+BVPVP8aZF3+/p/atF4p6baLjpOMijxLjtr3Ea4nJk6/F9mvlZ/DWNz6Bk5M39Jw+teWqLkHtAla2rFpIM+bV1hPGOlYubYfMVb1XuK8XQl55tm7bXfDcbl6vM8Rq64vIxUqoL18x3rv4vVMFVP/+KdtYck5b2yZZQL0UQ26RmRrUztdiu3/rTcyc2Uf0Qw/hfb/6Yc/23vMPYurkSb2WBzPEpASkuiRGVcWOHy2mjeCTEmK5qCgA8M5czUZUwXBfL6S7i7ndO0RIdt1uPb7OcNjGWg7Iy9vjdKxk4/ekgKRMgMtsYLX5wbwKlMR89Vh+2MiMCENyGXnk0C2hk8LH9xNkUydO4B3vuRcHe2/h9R+9gltv/p+a3rv5upquHxzg7Xf/JCanpvQaPVC3hXaKMixiVe4sm2ZOQRIFsdOg4737eic79HohUd1FOTbrkv1wyO3m+TpDYvsiNuI6zcxFsiA/SBbVX/dYFB8w1i3LkeyOLSmuIYIL6TgqV0L/20MOA7sa4Y3/fRWvXf1eo8CK3s2NH35fTd+89iO9RO9kb2LDStdyyzMol1F221m65c2qRKs+1htn5vZNVRq9PadetlsvrzMkalcqiKcvdPgwSGJZfI7kUkWkbR8w7iKzMZR3Q/nbQx34XmxlYT3Yv4V7PvBBzD34Edz7s+flXNz38w+o6ffc/zPqeblcR8bOqg5Xe8igJR/YDv/TKPY7/ujX6wwJWUB7Fp1HvHKFR0Zk43uxffPGdVz+0j+g8uwXPNuVf9pWwwsdmTtrt9DpeBxxt/SpbnmzqifWx3ph4dXDP+x2G/kjhW0spYBSrye/hn3YhI6F78X21JkZzP3a7yD2Wx/zbLO/nMT0qdv0Gn5IY0Ue5tl2hEYWK3o5PDz0eiGhxjLdPnQOud08X2c4qMP+DmP0zZNiPZ78UsMS86H/qCYH34utPOyfnJrGS//xb7j85afx3a8/L+fiv776FTX98qUX1PNyOT9FszuopovGeK7sijSuOOhEnuToZ72xZRtrFZvCOqqwjZUvodptu3m9zjAyc3nlZWvqPIB8/41Lv+QwVmPIOYLsZh6VVOPSL3U1QnNZ6/K2Rsh6bDakvz/kydc7yL749N/hzh//Kc795sdx7X9exM3r13Dq9AzuuG8Wr3z7Et66+QZuf8e7cPqdd6Dy7Oexd/Mmvj/zGBYW1/QrEB0PdSnb7grqR02Dl9flrs63zjFQqMhaGlie7f7eHn788ncxeeKkKKp3quECOX3ibafV9MTkJK5d/R4O9vfx6v7PiXn36zWJjk8ku4l8JXX0O8jklRc9XLFA4eNrz/bL238PVB/VU92d+sAmEr/yYT1FRDTaOvVsfS22MhvhlR+8rKe6u+vuezAzM6OniIhGW2DFlogozAIttoxYJKKwCqzYWhGLMvnr1ORrem5nvBqBiMZFp2Lr69UIvkUsEgWOebY0WL4WW18jFh2ZqCq6zzbPuLDcYzlbTKKcZ4tp1DtXc5537q38WsYrtV7L8R5tO1rbc47nh5HLe2aerUeereN7VN8782ypA9+vs/UnYlHe+llEuqqzEWRWqkxRcmSNRuWF6LZM1SrSu/q2y3gGseKid3GrbaGIjPhn3eMfcc+9VY/n1SqunIErUWPHNJ9TbQdDf2Oa7fthnq1nnm11F7GS+b3r3zXm2ZIH34ut5egRizG07nhMotB2Z49bpqoomAVreh7LK6KX4fFbX9sqAullLMTKKLYlqvRJBq7oh2OBebaKa56tKMKtX8ko5pvRc8yzJXe+F1tZWI8esZjEguhNpOQhmtfxp1emqkn2SpByOYSV96/LzJQIkguZjiEkh+IMXLHlCYjmcig+dGyZBsyzbeiSZ6uOklrbg3m25Mb3YutXxGKyoA/RFi42dtiOg37GeKujoCXFXtJ2CGvuHGYIST/MouK8J945jDAK98vbDv+ZZ2vxzrPVQ15mEWaeLbnwvdhOnzyJO35qDu+OzHu2d90XxeT0tF6jC3nSoV5CZuNiayxUsmWq6vFWOdamnjREsthMF7G2pacFOYRgJTU1/obUEYYSrKIiv/a4/XUHrxxa27Y3hC7PVp4sW8V81TEWzzxbcuF/sT11G94dPYfb3/5OUXhP4W1nfwJ3RWO47cxZNS3DaO587xympk/oNVzIM71mT9Z1J3bLVHUXya6IBXOipEqNCLxM8+SGaKUOQwkuhUUVa+fOJE+syD9MaTtzPeKYZ6u45tmqqxFcCq3APFtyM7ATZK9+5zL++4V/xQ9qu6qgXb3yTTX9wxe7lUYhcgFpmcBkHZ5bh2nyF9zIGm3LVPXa2eXJG1FQFTWEkG/+0T6l41CCPPEjrzLQX0M0dRbeLYpP9MKr+YoouAmsy26cOcSg2ghcg2kbazVyaG3fC/Ns1+UHrviXM34vGldiMM+W3Pl6B5mZZytf8OBgHxOTU6pHK8do6/UDFRy+v/cmmGdLw4R5tuQHWUsDuV1XFtuzL/0hzt51DyZFkfWyv7+H166+hKunH8P8L34Ss3NjdcEUjSR5kjXauLGh34Jr5dm6DC1QOARWbL/5jX9H7etFPdXduV9aZKElorERWLElIgqzTsV2YCfIiIiohcWWiCgAzWEEIiI6uo5jtvpx08ZGa2EiIuoPx2yJiALGYktEFADXYQQiIvIXe7ZERAMH/D8znZ0n2xkSHgAAAABJRU5ErkJggg==;" vertex="1" parent="1">
          <mxGeometry x="30" y="290" width="347" height="123" as="geometry" />
        </mxCell>
        <mxCell id="5o37a4prMIWbe8hypCf2-7" value="" style="shape=image;verticalLabelPosition=bottom;labelBackgroundColor=default;verticalAlign=top;aspect=fixed;imageAspect=0;image=data:image/png,iVBORw0KGgoAAAANSUhEUgAAAX8AAACxCAYAAAAs0b0XAAAAAXNSR0IArs4c6QAAAARnQU1BAACxjwv8YQUAAAAJcEhZcwAADsMAAA7DAcdvqGQAABVPSURBVHhe7d3viyNHfsfx7wTfo9zljwgjx5noSZ4ErHmYOKDZuzDccfN0yYNo8AU8gmM5CPtwCTkWDq3hktPkgdmng20Gcqsxl3DPZgx5PKzNSkn+h9h5dAdKVXV1q6q6uvWDkd3V/X4N5bW6JbXUkr5dXS19+mCpCACgU/7A/gsA6BCKPwB0EMUfADrIG/M/OLD/AwBIXt0R3VLxX/7uf+0lAECqDr7zR9sW/6/sJQBAqg6+873a4s+YP9K3+Gc5Vr0c3dPR7fjD/ypN0+38M3t9ZfHhX3nzzG1cn1148w/e/42dAbRDpPjrgX8aLZX2H3L+p5/K2Rdfmb3W5e8+lf4X/5PNe/fnMjfTVPvi53L/A70BODCFv/fxj1bz9G1++udqA5DdzmwYfiAyK+Z/JTN5JTfecmm0pjeRy8vLooXKxT92HzRak5v8mbzdyy+/J9NfvWen68u29X4it1+qDcA//qU8/qnI5KOfyGE+T99GzZOPP5PFwX/Lq4/V/C8/lGExX2T4K/8yjdb4tgbDPkjce3L6dx/JyVvfk4P3/91Oq3DYk/7n/yl37/5IHh3aaTkz70uZLz6Tq8/VxiScD7QMwz605NvwX76W5e9V+5tfy0FpI+Be1+VOz+fZf999R3ql+TRaaq0ePX+0x/BDtRH4VEb/+mu5sZM8i7ncv/sXMvj8E3m1sNNyZt6fSM/sAUTmAy1D8UfaFr+UY/ebOHkRtxdXfiPn7/xM+v/wW3n5C5Hx3/5SVvU9myc/Hsqh/LU80fPf+cDbgNy8718GUkfxR9oOh3J2/0M5eOu7WXvnEzn76O9VEVc+/5n08ulv/ZMcffm1TIfqJh/8VuY//sSZ90ORf/tabj/44+wu9fxf3MtJMf+7ciLfF3VToDXKP/L6/f/ZSwCAVB289Ycyna6+4jkajez/Zco9//CYAY1Go9HSa2vwbR8ajUZrZavHmD8AdBA9fxqNRmtlq1c64AsAaIe6A77lb/vURIACANKg6/l23/YBALQexR8AOqjZxX/xQo7VvsuBaefZz+u9aVk77+rv7u26OH7hBNHoaccvZJH/aycb7roLVtrNuZqW3y6/jm3mqpHp5XYs7kMB0FzNLv6HF3I7n8hgMJH5crr6eb25vBR9uGKp5t+fdHgDMBhJ/+rxdkVX3WZ0/2x1G1XYn90PZGAvltbvM7sRcafbedlrk18+k6ue3UgDaLT0h33sBqIoUJ1zJE+e9mX8fJuSeySnZyJXNrry5vlY+mdqQsz8tdz1386yctY5fFv69n8BNFs7xvx10bl7LXN7sXOGU5nJyVZ7P72Lp9IfP5cb0+ufyJNHdoZ2N5ZePpRzci+TJ3afy52uW28sd9mczM21XA6OIomaAJqGA74tMXyy7d7PUE5Hl3KiCnj/6YXfsw+Hch7XDPu4G4RnRzK/De4LQCO1o/gv3sh913uchxfy8uxKnr+ylzegNxgDGclpXVbxur2qfINgNgQd3vsCEtOC4n8j57HeawcdXjwVGduhGFO0r7wzUi1eXcndwDmwq4+XuAfSYzYdytH3NRM5yb+VBaDRml389dcL9biyGVpwioo39vxMjuZLc5IODGU6y3/Fp/7ffPsmX08H0rs6k/nLigO7Lm/MX2SWD+WsG/MfTmU+uVcbAL7yCTQd8Q4A0EK6nhPvAADwUPwBoIMo/gDQQRR/AOggij8AdBDFHwA6iOIPAB3U4OK/kBfHzg+KnLbKr7fXyXPr12TRP2juvb38rdrH83KvY5u7Dt3p5caPu4BUNLj4H8rFrRMg5oSK3V7YIIfFK7mSkfpzYgy8UDI3i34PufdNQJ4/gB0kPeyjs2rk7Imc9u+KbHqPl0W/59z7bw15/gC2l3DxX4ip/Y8OZXg6krurV1nv1MulcbLotYfOvW8K8vwBbCnd4m+GfM5E1X5V/E5lpBMsdZ5wOAyRZ9FbD5p73yDk+QPYRrLF38QTF4XnRC5VH/Tq+rWda8Wy6PeVe/9tI88fwBYSLf56yOdORjOnFzobyd2l3gQ4KoYh9pJ73wDk+QPYVJrF3wz5TMQdzjdDP/pfb7zayaL3PFDufeOQ5w9gM+T5A0AL6XpOnj8AwEPxB4AOovgDQAdR/AGggyj+ANBBFH8A6CCKPxrMRnZvE1q0bzfnQnQ12qDZxd9myEfz6vPCkP/gyLT8Qxnk/LvMh9e5TV5Yivt1xKY1Senx6eftFqZ15zuIFLHY+lm7biLre92ygvnea2wtXjyWcX8my6n+Nd+NnDvXX20Q3OnBr4tLj8Gem6BO7Lm6hlNZzvoyDjKjgNQ0v+dfmVfv5P3beAcZ2KC3WM6/snhxnP1iNb+NajO5TjeO4PCRnLnP0Q27Ky7Xne9A/wJ4VTB3Xj8V67tuWToqul/Ec8ykPw5f4xt5PpZVoujNtX5g9vpzmdjzEdycmwdspptfF4fV3XsM24bfVRg+kYmMZasUbaBhEhj22SSvXvX+dPTwyyyGIJ7zn0VAT+Z+ls1w2vzMnmqH8sjJ5dcFVc4eFXEWa8934OXv775+1i5H85alqB606dAbPTkKz5BjMoWcDZl3/bm8vuvL24c3cn25CqY7VCtjcP+murgX5ybI9lRW2wm996D3TNT0x+MiMNDsjXh7D/nei17vA7l/U7kkoPHSGPNfk1eve3/3k5eSneCrIudf905NwdAXKqzLrmmgw7f7cvc6y9K8ub6UfvEEK9aDyw1tW7d+KtfNBsvR6gLiwj0WZfHmXu3IrTZkGTu8dHAtp7FAulgCqZdTlJ+bQO01Ph3J5bV9Q+nHNnqq3j9q+svV2cluL+Zy3nstT4s9B7X3Yod73PUOpCiZA76VefU353JyP5GX3qkdg5z//Ebr0indIQLzYdeRxw2nn+OlHppZyJt7J545th50rXKLYZi/X7d+qtZN3fquW1ZB9bp76h7sXlu9fKjvVK5jxytiwqGnfKy+WG+69l/KKJZrvXgj93IpJ/lz0Bu8fOPSO6rfywAaLpniryODy3n1/nCPZmKLi6Jjc/51NYpEHLeDPinLvby5UUW4f1r0hqPrQZ/vIC+GYf7+jutnXrW+taplFfRwyzM5mt/avbZN6ed8J6WOty7WdRswb88gO5nN9Y0/dFQSbvTyPY5tTm8JNFA6xV/x8uoVf7hH00MQkZx/MxQxFLXzIOPgBOM35+nnzw9P+zI+GUt/1e2Prwf3fAel/P1d1s9rua5c345Y1r8ZS68u/GZYxbmfxYtzp6evC/ZAjnp5Ac+mmg1eXUEOhp7M3uSJfg89yQp6Lt9AmI1F/MCuGZY6qt2PBBotqeKvC9Qqr14XAD2y0Mt2yU3ryTiW8297tIcXtzZvPr/+gZzIqrecLP0c1Z8/5FNxvgNXkL+/9fq5u1Q9/Yr1HfbKg2WZQq3+xs75Bryvezqvm6bqsHNdc5IBs9EYTs1WxUzvjfsyWx0VzrhDT+65CTT9banBwByvKKgN1VN9ekvzeHoy1d8QsvdvmvkaaLZxXR1fAdJDnj8aS3/1tPf6qf2e/x7o3zTsct7hXW8HfIN0PSfPH0k6vHgpk/uTvf3C1xzo3fak/LrwB8eZgBTR8weAFqLnDwAoofgDQAdR/AGggyj+ANBBFH80mM3y2dO3fXZiIq83jJYAGqzZxd8mKkbz/L20xayZGhFMd29rIosr5iUpXxf2opqgiqVbmGzxzK9TWmeRImaKm3MdvVJLy1G8acFytHXLCubHXgvy/IH9aX7PvzLPX/FCu3Tw27Ec65CweR43MJO+DYAxPxi6OnNyWnSGfC/tDQB5/mpbRZ4/sIsEhn02yfNXTNBWX/Tf6lf3Q5naXqMpJN4Pc9Q8VQykKoI4CeT5k+cP7CaNMX/1wY/m+Xu5LTqrfWqCvkw2jXtlk/boFJKcl/KYJvL8HbHXs/Qe0bcizx9I5oBvNM8/HFZQH8ze1F4+vc4+8GsHeROnA9DI868WeY+YmxXrLdtokuePrkmm+Ou0xXKevyPs9ekDc8tZ9gE384LxaG1d/nsSyPMvkOcPbCyd4q+Eef4eveuue2ml4R5dDGxWvfcNDd3jHHtj5Kkizz+bSp4/sAX1gS34lxpgPlkOBpOl6nmtzEZL1RtbzvU89YD1U8jaaDlT15wM3GmD5cS58XwycObJUhWtlpgtR+b5W7H1Zq6jnncwPVsnq/UUriNd2aP3l6//6HLU/c3Kt3GXVVqOagP3xcrvJ5+kX3fnuqvXzj4v05x1oEXfIy79fvHfI5rafpnrm8cT3od5Ttn7rD3vH7SRersup9Np0UKkeqKxyPMHdqfrOameSBJ5/sD+0PMHgBai5w8AKKH4A0AHUfwBoIMo/gDQQRR/NJjN8mlSRAd5/miJZhd/m6joxS6Heeth/vzxcX32vJfSGLa6X7M2ULguTLF0C5MtnpXPPVLEwvWpC29pOYo3LViOtm5Zwfyt8/yL+3OnB69f6TGQ5w/kmt/zr8nzj+bP9+/i8Q85HTWgs2Z0Zkv+b357HUFQ98Fvmi7l+Rsj57FlsRDk+QO7SWDYpyrPvyJ//olNm9yFSaWMBZA1VYfy/KPI8wd2lcaYfyzPX/c2q/Ln3Shh3Yrs+XqLF8+qM+cbqlt5/qt45egZ2LzUTst93OT5A4VkDvjG8/wriom7q28+tDV7A05xMKd5TC2vpTN5/kOZFsuPDRNVCIeeyPMHjGSKvx6r9/L8TS8vGGPehVsckgzq6mKef2SYSCPPH9hYOsVf8fP8K/Lnn282xNMmXcjz199CKob9iiEq8vyBXSVV/HWBmqrikju8uM2+4ZHvlqt2cj+oP+Cri47ZfVe91Q2PBTSeHsJQf/6Qz0S8L8qY6wSGU7v+sgOZ0fUpq72Jkjt9+pzIcvIhJlewLFOo1d+4t1qWN44fDiH1jlShttdVr1t/lvXAh1OzVTHTe+O+zML4Z3foSX8xyN2709+WGgzM8YqC2lA9teeBPn7RMyf5L5arm/k2WLZxXR1fAdJDqicaizx/YHe6npPqiSSR5w/sDz1/AGghev4AgBKKPwB0EMUfADqI4g8AHUTxR4PZqOg9fdtnJybyOg94A9LV7OJfmcdui0IwT7do4FdblbLn9XpxC5NdT/l1SuszUsRMcXOuo1d4aTmKNy1YjrZuWcF88vyBb1bze/5eMFf2a8vzm0O5uF1NczP5b7cLiUkbef5qW0WeP7CLtIZ97IlYHuQD3Ark+ZPnD+wmvTF/L5kR5Pk7Yu8NL9uHPH8gxwHf1BW59OT5R4VDT+T5A0Z6xX9dZnvnkOdfIM8f2FhixV/3EsfS3zaMq+XI888nk+cPbKr5xd8dOjDFYukcKIShhzDUnz/kQ56/4b5/yPMHCqR6orHI8wd2p+s5qZ5IEnn+wP7Q8weAFqLnDwAoofgDQAdR/AGggyj+ANBBFH80mI2K3tO3fR6UicLOg9+A5mt28d8gj93EEDvzy0mMulX9SvVGzuuy25uulD2vi6VbgIKc/dJ6iRQrU8Sc6+gVXlqO4k0LlqOtW1Yw/+Hz/KumK6XHRs4/uqf5PX8vmCvP889mmR8BXZ052Ss68Ksnx8+dDBvd9I9Agw9uttHQWTQJI89fbavief7k/AP10hr28fL8bXHwfmwzND/HFzfDRjNRAX6wmI4yKJIpk0WefzzPf885/+fnzp6Du0dDzj/Skd6Yf57MaBIcI8UhLDLK4sWz6iz5xJHn78jfG/ZiITbdy/zZJudf7aWo3cVYxr9Gzj9S0d4Dvs6H2wwNtTWHRe/VkOe/vXBIatOc/7qMf42cfyQiveKfZ7ab3lwwxqyZD6fifrhbHcBFnn+hKs+/anrO2zPYIOc/3BDmGf8aOf9IRGLFX/cS8zx/mz/vfbsimy+jUeJj+dshzz+fnOf57zHn32woqg/qkvOPZKgPbMG/1ADzyVIVcR01Z9tgOVFdLtd8MnDmy1IVoux2g8kyuKonertkzZYjGan/WtHnr6+jnmswPVsPq/Uarhdd2aP3l7820eWo+5uVb+Muq7Qc1Qbei2vvJ58UvBdWr5d9XqY566ByuhLcV2m+etSTQfm9prZr5vqD0ci/ffE89e1Sfy+hLdRbczmdTosWItUTjbX3PP8qu+b173o7YA90PSfVE0nad55/FXL+0QX0/AGghej5AwBKKP4A0EEUfwDoIIo/AHQQxR8NZqOiv+Fv++zERGFHIrKBhmp28d8gd32nPP9gfjQkLAWljHldLN0CFOTsl9ZLpFiZIuZcR6/w0nIUb1qwHG3dsoL55PkD36zm9/y9AK4HyvNfmyWfCPL81baKPH9gF2kN+zxUnv+6LPlkkOdPnj+wm/TG/PMERpPUGCkOYZFRavP8w95yYsjzd+TvDXuxEJvuPh/y/NFB7T3g63y4q/P8dQroJlnyDUae/27CISny/NEx6RX/PJvd9OaCMWbNfDgV98NdVXR2ypJvGvL8C1W5/VXTc96eAXn+6IbEir/uJT5Anr/5tkcbCn+GPP98Mnn+wMbUB7bgX2qAUu56OWM9mssfy593rM+ST43OrifP38/lr5quBPdVmq8eNXn+SJ16a5LnjzSR5w/sTtdzUj2RJPL8gf2h5w8ALUTPHwBQQvEHgA6i+ANAB1H8AaCDKP5oMBsV/Q1/26eWibyORGEDiUmi+Ecz+13mA7maf3B8XJ8/H8lzX7W6X7Q2TCljXhdLtzAFOful5x0pYuG61IW3tBzFmxYsR1u3rGD+w+f5K6XHQG4/kGt88a/M7LfFIppB37/zI51DNhrapDTm/+a3D7P/m4w8f7WtIrcf2EXDi39NZr/JfanIoH9iEyd3EWb/Nxp5/nvN7ddbI2/vId/bILcf6Wt28TdpjJECkKcwFgFfdrrLjRPWrcifr1eb/d9A5Pk7vHROy33cW+X2L+X2Yi7nvdfR7H5y+5G69A/4VhUUd3fffHBr9gacAlGd/d9Q5PnXC4eeNs3t10w8eEV2P7n9SFyzi7/pyQXjyFqez141f1tugUgulIs8/8JD5/Zr4UYvz+4ntx+Ja3jPvyaz3wwJVGTQP99siKctyPPPJz9gbr/+12ws4gd2ye1H8tQHtuBfao4w+z3MSy9lww8G8fz5fFqY517KpE+Nzq4nz//Bc/uzBxp5r5Dbj+ZTb1fy/JGmvef56980kNuPltL1nFRPJGnfef7k9qPL6PkDQAvR8wcAlFD8AaCDKP4A0EGlMX8AQDvUjfl7xT90ebm6IQAgXRzwBQBQ/AGgi2qHfQAA7UTPHwA6iOIPAB1E8QeADqL4A0AHUfwBoIMo/gDQOSL/D9Gi+pibuYieAAAAAElFTkSuQmCC;" vertex="1" parent="1">
          <mxGeometry x="30" y="100" width="383" height="177" as="geometry" />
        </mxCell>
        <mxCell id="5o37a4prMIWbe8hypCf2-8" value="" style="shape=image;verticalLabelPosition=bottom;labelBackgroundColor=default;verticalAlign=top;aspect=fixed;imageAspect=0;image=data:image/png,iVBORw0KGgoAAAANSUhEUgAAAXkAAABgCAYAAAD4rQLaAAAAAXNSR0IArs4c6QAAAARnQU1BAACxjwv8YQUAAAAJcEhZcwAADsMAAA7DAcdvqGQAAA2GSURBVHhe7d1NbxvHGQfwh61zaZN+iIJ0XZWXHk3eiqYAqaQgEoRXo4eScApYBAIhQKGjUDQQEFAGkobswdCVsA0CjUjDKXoT/QUI2RDZ9DvUbi9JsZ1ndnY5O/tG0S+aWf5/xsDi7nKXu5SenR2Sf5Y8gQAAoJB+oP4HAIACQpEHACgwFHkAgAKLjMmXSuoHAABwQt6rqrEi7333b3ULAABsVnrrJ5sU+efqFgAA2Kz01ju5RR5j8uCG5ZdUF70W7rlwq9/9p5phMJbj1n2k5inLu7+OzI+t69FeZH7p9mM1A8A9CUWeB+bR0Gxqf6fuzx9S++lzeaXpffeQqk//lbCcajc/o4VcTrSnn9H8fS70/jwu8JX7H67m87o++aUo9P765AngfaJJOP85TeiUpvr60dCsaUTD4TBsSeJFPmk9aGhX3egXdL0S3H6XBl+9G52vNxb8XPmYzp6JQv+nL2lZ+oaOPiHq3/uYyuHyYl1iPt1/JOZ/S6f3xfxnd6kRzidqfBW9jYZmTVsDhmvAAe9S6/f3qHntHSrd/kZNu4RyhapPntFiuaD5zQ9pt6ymB8L5j2j0RJxMzPkADsNwDZoTrfGXF+R9L9pvv6ZSWOyTlg2Y09LmGfNv3qBKbD4amq0tH3ry4JbGXVHsH1Lnr1/TVE3KJXvwP6OK7LE/oNOlmh7Imw/gMBR5sN/yC6rr73AJirK6me0xdW98StU//oHK9Bva/5yo97svaFXH/fn0UWM1/8adyAlkejt6G8AlKPJgv3KD2vMPqHTtbb/deEDte1y0Uzz5lCrBstf+TDvPXtCg4c8q3/kHLT56oM3/gOhvL+jszk9X8z+fUzOc/zY16T1SdwdwTvzDUN//R90CAACbla79mAaD1VsnO52O+mkl3pM3x/XR0Kxtj6mr9bhX7Vd0/G3S8mhoBWtriPfk//dfdQsAAGxW+uGPNujJAwBAYSQUefN6AA0NDQ3NzpYvNlwDAADuyBuuiY/J58RWAgCAHbhmY0weAGCLocgDABSY5UV+Scf1krgkibf6cfDBdLVM/dj/qPrymOrGsl3+TLqavrqfwNP4fsH/arKkr0euYGXaFdPM5d+0rP0xfw6ss0/6Mqrpx0+fHm910h8OAFw9y4t8mfbOPOKXDbxFn2q1Pi34Z9HO9tSH2penNKKO+DdaBUtpy/H95oeq2NU6VB3dulwhEvfpzA9X9xHF7nBeo5q6eaU22R+Wt0+px0+brubpz4m3aNOo0kXOC4BFnB+uWZ6OiNr71KrOaJQUH7g4p1n1uso52aH9gyr1ji5Thnao1aZw3dOjHlXbYoIVNtkfdol9ihy/HOXrVFU/AoAdHC/yS5I1frdMjVaHZqNTv8c561ElGEJozqm/r8VLNQY0oaY/BLGmyt4BVXtHNJU93j7t76oZNthgf1jmPqUdP306t0qPZv4c33RMw9rOmumQAPAmuF3k5VBN2/+mn0aLOrMRnS7Ez+YQwq3o2HRjXxuCWEuDWp0hNUVRqx7srderfYMuvz8sY5/Sjl/ScI1e+A93aHFm3/EB2GZOF3keqpmFRaZJQ9GvHI3P1VyFhxBm58S1P1Teo5P2iI5O1e01cCGtUYdaNmbObrA/bK19Sjp+uqDwy4KfsRwAXAmHizwP1cyoM9F6lpMOzYZc6jUpQwjlvQOinhpukIVMe+FWkCeQmvZipCikZ97A2lzxyP6wV7VP6w7B8LomRM0SXngFsIm7RV4O1fRJH26XQzb8f2RMmWiSOITQoIE4KYQ/y3eGqPuIVhm1aXFiywus69D3h73EPqUdv7wx+caAFv25KPR4KyWALRBrAADgKK7ZiDUAANhiKPIAAAWGIg8AUGAo8gAABYYiDwBQYCjyAAAFhiIPFlMx0pcN5nmdpl1CpDK4xP4ir3LMU3Pggw/mqJaUfa7fd3lcjywfWa9LgmOgbooJoiCaxScvaz+hWMkipi3DBzS2LSEyzdgOy9uWMT/peVge36JedULeoJGx/JS64XTj07axx6B+P9JE9ilFY0DepEo9Iw8JwFZu9OSzctMjYVoc1FWnemVE7UUQdzCh6rmfqMIFXn7qM1ie5/Uqbhb68i619Qx9PawtkJu1z5+IXRVGeQLkT7iGx8ejCY3zYwqStsMytsURxtUwkoKfB/P5ndJRj1YJmCnLT7vyAcvp8tO2ZhWP/X68guLc2Kc+9ejSCc8AV8CR4Zo1c9Nl9nmV+N/1sNg1aMA9waBonOgRB/zR/z4HqzvYKyvTrpYJz/tO7d1IfENu1n4k/92Pbe4volk2jUF+Xk/udlhkW4LoEcunRarQjvktLDIzRztpJS4/pfFwFbBWFgekNr9Ify7DbHz/ymN1PlBXAxzToKIbwhN/5GoguBrhY1+j+UXqlgCs4c6YfFpueiRnhbPPB36ELt/WF15e0FwvGoG8lEWLla9XaaauUqbjIVVXZzYhJWtfp4ePcW98pp8cDam5NWtsh2UFnSVchSwv5lQzTlqhpKsWlvRcxn4/+IxQpr2DDg3H6veDH1tn4idpqp6//81jovhXzukgvBIQVyNqmEY/9gA2c+qF18TcdHNIQPwRVgbqdmvs/3FnDsQ6jAPZhjycsqSLuREZrBdCPWtfL3pm/ntW2qR+nOWx5phiIWk7wROUta0QF1KxhsgVVpZLLp/w+yEfXnjsuMYPqZOUt8wdA1IdBm6yp69OIpWd7KsGAEs4VeQ5zjYzN93syfGLZN7E/2OW84wxYyZ7+GtE6VqJv/hjThdTUWirrciwSmrWflD0uEjrxyrt+ORYJG0nWEnatkI8THJIO4szCr6yN1vO8nnPZeT3w//SlPE0OuQTY57cgmjmcOgHwG5uFXkhlpuu48tu7nnFhmn4D79B4kLAeFcE9wp7sbFslzRaVeo1e1SNduPzs/Zj+e/q+BhfxD3tGu9YiTincdJ2zCGbpKx5OdadXrDlcIi+nsTlg0Lt35IntqzCawwZySvDZpPm/X2/cLPYiS/5BVY5nLTjZtcAtoz4wwxFb1li0fdqtb4nelMrk44neljegueJB8274beONxFL9mv6tJrX1+686Ne0eeSJAuW4ideR+61JOmZyObHPxnT/eKyOkXl8uIInri849onbEeubxO+jbyu2HdFq+hMVrEdNSl9e7ZdsCcdBWz42Xzy6fi36+yHOUXLZ8LGY65D75P+Ouf+7A64Tv5LeYDAIWxLkyYO15Ftezw/898m/DvyZgE2+l3bT+wG8YlyzkScPzirvnVB/3nxtL5zLF1wv+8XsXOD5XTprv1AMcLXQkwcAcBR68gAAWw5FHgCgwFDkAQAKDEUeAKDAUOTBYsiTB3hZ9hd5lQIYiQM2c7/NDPR6PT3/XK3PX7ZL08htNU3dxWrmMZAFscB58uJZWeXGixYWfn268dzFHgPy5GH7uNGTz8iTT8xAr86SYw8Yf8Q+TBtUOSR6Pgl//D7vD90G25YnPx2HufGet6D+/FAujzx5gGyODNek5cmnZKDvq4TETcgkxaQwLdtsc578gs5lLDLy5AHyuDMmn5Qnzz3ItAx0PeaWW5h/nm15fJiee26Z7cuTV8NCpTG1gqswXSRlUtEfN/LkYQs59cJrcp58SuHQL9PlH2hG714rBPLrAV3JJNm6PHlRnM94+y0ar/vipzlkhDx52DJOFXkeT4/kycuemzEOvAm9EDgVOrVtefIB3u8ZxTrSyJMHiHGryAvRPPmUDPSj9YZmimBb8uSXx12t586FuUY7FeTJA+RxrshzMRqIQhIo753576oILqlFa85r6UMzXFzCF9iyCpgjeNhB/IsP1fQpeGOKJJczNAbq2PlDH4nHkqJXCBEz/oqWhO0EQ0M6Y1uyIIt/vcpqW5G3URpDP6LeasvyO2r8k0NjIM8ecnqlV6WJGUusDxnJu2lXavwOpVpNvp7g396jA/X9wP5j8b/ofa7WL5t855V/Eo2+BgJgJ6RQgrWQJw+QjWs2UijBWciTB3h56MkDADgKPXkAgC2HIg8AUGAo8gAABYYiDwBQYCjyYDGVVfOa3l2zERnFvGakAoAF7C/yKgUwOU8+CKzSW/AHmJBxHtgoM90yscfG+2sWH+MYqGMZP1aajY5NwrHO25YxH3nyAK+HGz351Dz5ILBq9ZF6CuJp5ac+4xnnG2em2wZ58nJ55MkDZHNkuCYtT14nenTah1SSM843z0y3D/LkkScPkM+dMXnxRx7Lk9dwj27eP1FhVykZ59zj3Cgz3U7IkzdEUiaVSHYN8uRh+zj1wmtinjybdqk579NJEGeoFw0j6GqjzHRb8b4hTz6bOWSEPHnYMk4VeU4JjOTJS9FhGiYTDsMCo2Wcy56eMW7sNOTJRyBPHiDGrSIvRPPkuROvD9MwHj5IyzjfJDPdbsiTR548QBbnijwXo1WePP+x86hAxb+clq1CvbSMc1EkLp2ZbjveN/EvPlSDPHlJHzJCnjxsIaRQgrWQJw+QjWs2UijBWciTB3h56MkDADgKPXkAgC2HIg8AUGAo8gAABRYbkwcAAHfkjclHinyS4XC1AgAAsBdeeAUA2DIo8gAABZY7XAMAAO5CTx4AoMBQ5AEACgxFHgCgwFDkAQAKDEUeAKCwiP4PErfnIrTER/sAAAAASUVORK5CYII=;" vertex="1" parent="1">
          <mxGeometry x="30" y="420" width="377" height="96" as="geometry" />
        </mxCell>
        <mxCell id="5o37a4prMIWbe8hypCf2-9" value="" style="shape=image;verticalLabelPosition=bottom;labelBackgroundColor=default;verticalAlign=top;aspect=fixed;imageAspect=0;image=data:image/png,iVBORw0KGgoAAAANSUhEUgAAAasAAAB7CAYAAADKWK/2AAAAAXNSR0IArs4c6QAAAARnQU1BAACxjwv8YQUAAAAJcEhZcwAADsMAAA7DAcdvqGQAABfxSURBVHhe7Z1/jBzlecefs435aX4YYzAkdWJ2jbksadWkKuxFkUoDzZ7j6ATl/qssqnZPNJX31Oiaf+6vyqqELKE92obugYRO/aPSOrYucm7XgrYSRT4ikkpBLAe+XUiBNrgNkAYIBozZPs+778y+Mzsz++Nud2Z2vx/r9e28887MO7PvvM8877z7fMfqDAEAAAARZov+CwAAAEQWGCsAAACRx3cYcGxMfwAAAAAGhN+LqUBjVb/wnl4CAAAA+svYJVf3aqze10sAAABAfxm7ZIevscI7KxB/at+nCX4ik6cySROPvqpXuJByX/8+1fSiwszz2o8rzzt9gxYcO/XjVVr4ute2Ot+sm7uup3Oq/MxpvWzty3E+fvvXqwGIMW2Mlby4QkKKcvoXmrn9JE2//L4aCahfOEmpl3/uUa5dCtjPXQ9TVeXp9PLDlDbzXr6firfnqNyyT3dKUO7fjf2cepD3fT8dpKeoSA9Slk7SSs1ju9pjNHHoJcpz3QrftPK8tvHZf8Jaj4QU9US0uLhoJ5NgY+W1LySkqCX6Eu1PWsv3UOEf73GuN5Pgl+e3H8EqayXB+pxMUspc7ig9TTNigJ78C6LyCaIHZmkq9TwVy681ywivsod1+wmafuVfKWfXjW2V3zZ2au4ftgopNikADAOCmHMPTf35kzS5bQeNPfS0zuuFgP089z1KSr6VDnyPVvUqRfkULd51gMSWdEr5ofuo8sjjlEu8RivHiaYn91Hm2w/S6vHTxrDeCTp8QBuqhM5SBG3ToLl/nQFAzMEwIFLsU+axD6j+Kadv/6hhTJSx8Spr4Z3nvR9Ghvwk30qvPExp04D97QGqPvsdSjj2G5DKOZqsPExLR25lF+k0FUkP1WUOUfa5E3pYj3mODdIjKZp9UN5LGdv7bqOTuX9zOySkyCd/4FmB4SHzKBuTk5R9/EdU1lk90cl+LAOmDNdZqurs9jxFM4cqlH9SjBvbndIJWlWG7yo2fPfRIj1PxdJrjaLyvunIo1R94AQlH3qqkccEbuPaPwDDAowViDe1f6AJoyOnWpUqd93mPSSXSFJKeSF6mVEdfypJiW72Y5L4Dp05RTS57UhHBrIxPPeEHp6T4bznKXvK8NpO/SmtHi87hvUSR56gfOU+mnhUDFLwNs79AzA8wFiBeJPI0DR35GPKy+Ak73h8vYp7qfDK/VQ8oMtySh6/n6qP3Ru8H9uLsda53lmxJ1Z9pMIG6+4208SfouXHiVb/6st6X1+m2eeIpjJ6tZD5VmNYz+Gq7aPcsycpxdtNPJSnIj1Mc17b1Nz7l9SZEQUg6gT/KPjT3+glAAAAoL+MbbuSCoXmlPVsNqs/tfOs3O++kJBik56iGdu7MBN7PzKa5rnNZqSwjouENAQpgGDP6uKHegkAAADoL2Nbr+jRswIAAAAiQBtj5fbRkJCQkJCQ+pX8CRwGBAAAAAaJ3zBg8Dsrn1DtP/2zafrFqePq882HHqCvPlFUn4N48YWf0Lk3XtRL7bnpt+6gO3779/QSAACAYUfszqYZq9N7xmjPVqLrOW2/bie99fa79NZFom++5WPZmDfffJ1+cvpvaM/HT+qc9vzPju/S1OFjegkAAMCwE2SsuppgIYbqd2/cSVfsuJpeujBGP3vnffVZ8mSdHz/94QzdcP6f9RIAYPipEU1wnzDTxU+SyzPcW02oTftLD3VzM7C6AouOjZUM/YlHtX3LVnrro0/oj37xGd375ifq89W7b6TP77hSlfFiS/192pP8It32B98KTPvuupu2bt+ut3JRW2iYXZW4oTiWdYrrT/WtczHDH0jeBCfrr4l57u4bbobzrPJ+18grvyXhRhwqrO/cr435reuVhcNEqRLR3LrRpiTpe9fct+r4eR0ViEoposMbOG4neNaN66DqwcmGbxb3slXvzIDqCmw6NlbyjmrPtsbnvbt30dN7L1Pp1n37VN4tV11B7/7Hj9VnLy6/ZidddtU19Jt3f6nSpVfuoEsuu9xern/2GV1z0+doy1a2iF4kckTVPFGaU50biqA+1xtJ1k1yo4urwUqzu1vkm6gbAyHbVI42t5FOoJLWCxr3NTqqby4z31rnKMsPHknzRgWxJ6iN9dL+fOGbcJb/WDGhzHbFNoKSslIjbXaywu2N10nxzBz/x+v7dh8bdXP3KWKAsotNo73A91ZJ9zUL/PA2Ntn4bNH3ugKTroYBt++8gS7btYv27ruV7knfqdItuznv+t0qvx0XPjpP7537L5UunP+QPvnwA3v5/K/f1aV6xGp4VmccO8aJ5vlJ7Vg3LZ+3EWfWisx6jG+caW/vVlFd4yfK/XqhDYkOy4EYEdTGeml/PpSX2QBwO/QK0JiZ0h8YMVTJIrfLM0ZZ/jDND1zrm2I1Wwmqm1BgazrLRrvMdStyOSsGY47rKP2Lgz7XFTjo2FjJrL/X//eXdHbtZXrh2Wda0qv/+Qbt/MqdunQr4jldtWs3Hbj7kEo7du+ha2/eay/vuf136LOLn/LDFz9h9Yp0sKvcIccVebIjfnrrpr/IzfPNdUx7VXwzHdT5FqtswKyhDnmCtZ52zXxJ5tOuoG5q7sDAcBHUxnppf16sczubdjdEjXgrCjZSLYZKs5+N5lrnoitdEVQ3Bd8fYpMmuW5L/ADcjn7WFTjo2FjJ9PT3/5qN1j/toptXUo30zB82/p7cT7868mHgFPZzZ1+gyukfBKb1Z8r06ccf6S1GlLluvUO+uWToQozNvMfN5R7as8bYvYYBTQN2lA3VmQ5uVhA/gtpY1+2vA8x2Jd6Kamucn+eO3uudT5LbXmVdL4SAGKBOCbuuI0RXw4BfO1Knsy+9Q+erPyf6+BOVJ5/PPl+lr/3lZ2rZj6t23Ui7E+OB6fovJGnLNv1irBdq3Gji7g3IcOY0G/0VvdwJ0sFQVtmtQNp5npYBU51JjD1UEExQG+ul/bXDfDCyHoBkKC7Hnpwcyz1JqJvh6k2H6yKvpjqdPBFqXUeLroyVIEbpjXPNALfyuZ2hEnbccDNd97kv0rbtl6p07S1foGv2fN5evnLnDXTDvgO0ddsleotu4Ubm513EDTW0p4fllIHhG9ocFl/h5bQxkUI6GGvSSRCdDu3J/uRFuGMmFBgqzDbmJmhdJ4hnUuzQ2uWW2DNh62DORJShuvG2spe90a5u1qSKTidP9LOuwEHXxmojnP+/d+nNn/1YpQ9/9TZ98PY5e/md19u8pFQvY7nxqCEF3Yk63rtwI7NmFMUePokSe0rWZzUzzzpPPZSyxKkTzGskT4zWk63j2nFyv7OS9xd5vhExhX1IMduYm6B1HSCTKNwPWL4kuE3KpAbu8JXB4lRcZaPiNwNig5h1c/cpMnXdnlTBx19ij3BS9zUyG9Auy/eLMmJ9ritw0FUEixdPTdOvX/8B3Za5W+cQnS3/W1vP6od/N0Ff/coWuum2O+jTTz5WedsuuZTq/O/ihcZw4pat2/jzx1Q5fZwunD+PCBYAxBnp3NfYQyuonr9zxGD0+31pr3VzM4i6jhhidzYt3JLbYHVqrPZed5Yu33GtzvHm4sUL9N65/6ZzV36Xxn//T2j/gS5edAIAIgR7HRPsLcmPbzs1CtL5q99cecwQ3FR6qJubgdV1tNg0Y9WrZ1U++ff00Xuv66X2fOnOwzBUAAAwYvTVszq3tpPuOFRUnwEAAIBeCTJWXU+wEMN0zd4/Vh6VJBgqAAAA/aan2YBioGTor5Mp6wAAAMBGGejUdQAAAKAXYKzAgKjRwsQYjW1EQ2hQlGdobGzC8TtVAEC4xMdY1RZoYmJB/ZbPTW1hgjsX7gh1mnD1Mi3rZ2Zowl6eobLsW/LN7QKOt+m0HEs6drOz1B29VUbXt3lOHh2r6nCNMpaR8DovR57rWELQ8Vzr3NfeorZwmGZTJarbU4XLNOOoBy/b++HvROf652ta6jYWrKnndf5uMgWql1I0e7hNuTihr5NnGw9apxcBCJvYe1ZiiJLFaarW6yQTG+v1EqVmk/aN17q+StM0TkvVPKXTec4vNH6wns5Sqng4nKfpxEGuU9FW+qDaCi9N00Hr9xtqOcv/jDKq7vqcqrx1stmRK+M8SVSyz7lOJVpu7ei98DqW4He86hqlStZx5Np7XcOyUi/J64jvjYeHSWrO+RHbqiqs9lPNV2hSWxy/fAeOuuWpcnQTOtnMHOVpdlMUMyJDUBsPs/0D0AExN1a6E1zKGb/Ly1BBArEWV7jD8lqfoFzBXLYYp7l5fpoOpXdK0MFpqbLuKSQ45vRBu441iQU4PUdTqdVmGZPEfmr+Kq2mQgfmq9oIazIF57IfbY8lmMdjL6T5u8okjbu0HxXlZVpMN41vIndGGZVm0TItL2ZpSu8nwRcjXVlX3593fgB87Va5civsHTbtmnhn4g2y13h4llZXZylpeRLaq2h4ZaaHKt9JmipDpVUU1MbDbP8AtCfexqq2ThWjE7SRznR1jap+6/3gjrdEk8HDSH0isT9Fq1oXp7y8SCk73ljD+EzzSWSmsrSqjLALZQzG2VQw4hlxbx0Yrkx31vbQWZI7cLWig2MJ5vFM3B6hprZeobRhfNtifX960cYv3zyfyQp7cDnKzWdpcVl/kVLf7DzlEvygsmR51HU6k6vSTHKN5m2vjD1GY+jP/E6GhqA2HmL7B6AdIzTBQr+LkQ4tYCw+M7dJw0jdkpmi7KIM1dVovdL0JhwGQMqsFmlF+k+zgz46TtUzhrfoZUhMzGEz1UlrL8frWNaFCDqegr2XJG/t8GIHhHuIUgyOfT0bxj9rX1ADeZihRZq0zkuMtmkMk+PtPbkYEtTGQ2v/ALQh3sZKPWm73q0IyqPiDtuxnp+qzxgdsx+JHC1NF+nYZur5dESGprIVWi+zwUhN2UN2MixnDVs13vOsUnF5rdlBy/mYHazfNemAqtexrB35HU8hw2xHabx6hr0XnbURrO9PL9r45ZvY3pdcz0VaLjuHEltwG27rHaaghhT3D9749pugNh5a+wcgmJh7VhmlO+ictSVP+LP6nY/X+vYktJ5PY2hscGSmUjQ7OUuppltFK8VVytoTGDiVsrS6KGZEw52LKCxM2jPl9DkbEy6E8ozHTDoHa7TsdSz3UKD7eOqdT7ChUsNpfkOKCsuwNJaUgVZGwi8/AGOIUnkJk5NUyc/xngwsY6sMm/8kCjV8OaRaRUFtPKz2D0Ag3Cl54r8mJKr5OntEEq1Qp2y9ZK9KG/lU5w7XgXt9Ops19sX7kX2n83V+wm5Sytb5qduZ13dK9axxXuqcW+ogZbjervzGOabreZ3pPmexQnpF6z6ta+t5LN5nqXUb63jZrOs4nNJWJWz0fnzq1qiaPi+VjGvgm68JaBe8sp5PN49rwTZYlVX1dG9vn6ds29qWYovX92618aB1ehGAQcC3YL1QKNjJpOtAtgD0gvoJwdq88TurASC/NfN8v9YBG9kWANATYnc2LZAtAL2QyC1RvjI50AgWamLFfI+GSmYVhjFZBADgCTwrAAAAkQCeFQAAgFgDYwUAACDywFgBAACIPDBWAAAAIg+MFRgQOtxVlALPQbcKgNgQH2PliI4tyR2Rob0Ok63X45cfFlIfR7xCORezE3WdW8u18OhwI6tnRYY+FSfbeEG3CgDgT7w8KzOOm4T8cXSoEoTV1GHSgVWrVvigEqVUBG2//BAZJT2r8rKtT1WvVylfOarKQ7cKABBEfIcBVVTwZkBVbx0mUyojQwU7eoJffliMkJ6Vo3yV1pScSa+6VRInsOEJNm2b9tBUBPVGUF5vj9ryDodRtwqA4SO2xqq2cNTQVPLSYWoEQVXyD46ndL/8cBktPSs91Di2TFNmlHMLO3K6C7PeSrdKtkx4aFeVGtHhtSd2RkXYFY/aW7tqKHWrABgy4mWsjM5KSdVbcdvMTtLQYcoUdMc0tdzo4LRx8ssPFVt/aRT0rLRcS32Klr3et/nhHoq03jXZ105sVQ/aVUOqWwXAMBHfd1ZGZ6mkI+zO1KXDJMiL9HrJ7tBs/PJDQTy+UdOzknNepRanpivdKsGSEulRu2pYdasAGCLi+87KxkfzaTbp9JisDlDeW3jl68UwGQU9q9rCjOFJiXFJ03jSMjaNXGWgu9CtEjy1q1qMuPdEimHWrQJgaOBOyRP/NSHhpbkjeOabGkhWsnSNGjpFrflRQOo95HpWopNklG3qRZnfWbe6VUKrdpVDt0pw70Od05DpVgEQY/i2hJ4VCJe+61n1qj8F3SoAIoPYHURdB6HSbz2rnrSroFsFQGyAZwUAACASwLMCAAAQa2CsAAAARB4YKwAAAJEHxgoAAEDkgbECA0LHA4xCaKt2QOcKgMgRH2PloWekdI8c+Y2oCkoiwygXul5VO+QcHNpL0rGbnaVLY6rlWnh0rFHVs5pb9ymvo6WrZEbb8MvXtNQNOlcADCPx8qy8YrtJ+B87wnaBkvLjUwlya5cRjaVktA3WKOlZ+ZT307OCzhUAQBiyYUDdKTp+5JmhAndg5Cd3EQlGVc/KKu+nZ9WrzhXRSovGlXiD7DUedulcOTwz00OFzhUAUSJexsqOCG4l17CQCkpreCQWjgjd0WS09Kw0PuV9vy+/fPN8lM5VzkPjap5yiQTllkydq6qvxpUAnSsAokP8hwH1qtgzUnpWQrflA3APUYrB2ajGlQCdKwAiw3ANA6onb9e7FiFCMiD+jJKeVZvyft9XJ9+j7X1tUONKgM4VAJFhyN5ZaS0nxywueYKfdbwDiiqjoGflXd5Pz2pjOleeGleCZWyVYfOfRAGdKwAiBHdKnvivCQlPbSfGoVHU0DhyaznFR6to+PWsWupll/fTs/LL1zi+f3eZVo0rwaFz5d7ePk/oXAEwaPgWhJ4VCJe+61l5sRGtKuhcATBwxO4g6joIlX7rWXnRk8aVAJ0rACIHPCsAAACRAJ4VAACAWANjBQAAIPLAWAEAAIg8MFYAAAAiD4wVGBDQswIA9E58jFUHukWeOlYt23lFcijTTDuNo34idXQcf4j1rApk6FNxsr9ECcFk5ZvfkV++pqVu0LMCYBiJl2flCFgqoXSaHZP60amXjtUxI46eJAkVZHRWDQMncfBCZJT0rMrLtj5VvV6lfOWoKg89KwBAEPEdBtSii42OKUDHyoyjJ6ho4s1ArIncmUZwVr0cDqOqZ1WlNSVnAj0rAEAw8X5nZUXYDtKx0h8tagtHvbWYQma09Kz0UOPYMk15ybxY36tetPHLN88HelYADCWjMcHC6MzUUGEU472NlJ4VG40zcuwpWt6MiQzuIUroWQEwdMTbWFn6RuqJ2/WORVCdEWN2ZpENTDpKelYWcs6r1OK8+OlW+eWb2N4X9KwAGCZibKzkSX6WUipQaYCOVTYb8vuozhkFPavawozhSYkhSdN4EnpWAIA2cKfkif+akGjRLWrVKfLUsfLSbzLw3CY0RLtpuPWs2AA6yjavt59ulV++pqVdQM8KgLjCtyD0rEC4QM8KANAOsTuIug5CBXpWAICNAM8KAABAJIBnBQAAINbAWAEAAIg8MFYAAAAiD4wVAACAyANjBQAAIPLEx1jp6NgOvSRLm8hLo8iMpu2aLl2e4bx2mkaDpF/nZpbTSRX3yG9NmxCzDwAANol4eVbpLKWKXnpJAfA2Wa2ZpOCO+mglHb0QTP06N0eQV0PryR0TT2L+Oco6NbIAACBMYjYMOE5z8yma7UoRb5ymDK2o8rFZSk1zRuQYwLl1E5hV4ubpjwAAEDbxe2eVKVCJJoOly10kc/OUmj1GZeV55GnuoF4RNfpxbqa0h9J60uGOzHxJtqaVxk+zCgAAQiCWEyxUNO2upMsb0bsn7Sjt0WXTz809tGdFpvcaBjQNGOLiAQAiRCyNlchULE0X6diKXu4AMQJpCtA1igr9PDdb68kHy4B5alYBAEB4xNNYMYncPNGsHrryEBxU2kdpY7KB6DB5SahHkL6dW6dDe27NKgAACJnYGisZ/iqUrCCH/FnNXmu+g1Hy9UtRnEjRCZt4bo53VkQla2iv3TurTIGq+QobLExhBwCED6KuAwAAiARidxB1HQAAQGyBsQIAABB5YKwAAABEHhgrAAAAkQfGCgAAQOQJnA0IAAAADBK/2YC+xsrN4mJzBwAAAEC/wdR1AAAAsQLGCgAAQOTpeBgQAAAACAt4VgAAACIO0f8DWmtJlGdXsUgAAAAASUVORK5CYII=;" vertex="1" parent="1">
          <mxGeometry x="510" y="310" width="427" height="123" as="geometry" />
        </mxCell>
        <mxCell id="5o37a4prMIWbe8hypCf2-10" value="" style="shape=image;verticalLabelPosition=bottom;labelBackgroundColor=default;verticalAlign=top;aspect=fixed;imageAspect=0;image=data:image/png,iVBORw0KGgoAAAANSUhEUgAAAaQAAACgCAYAAABDqhiXAAAAAXNSR0IArs4c6QAAAARnQU1BAACxjwv8YQUAAAAJcEhZcwAADsMAAA7DAcdvqGQAABfISURBVHhe7d3BjyrJfcDx30TrU+L8FfCyGXOOtIy0J28keHI0SqS5vpNBlqWFQ0a+zPEdYj3F4m0UO4wP1lwn8Wok+4GVRLlEMyvljGZXA0n+hzg52RKpKqqb6urqbmAY6IbvZ1X7hqbphm7oH1Xd/H4nc0UAANizP7D/AgCwVwQkAEApEJAAAKVAQAIAlAIBCQBQCoVX2Z2c2D8AAHimvIizUkCa/+5/7C0AADZz8q0/3kZA+q29BQDAZk6+9e3cgMQ5JGD2UzlT39z0t7dl68nY3i2/6SXv+/S7cvbpT2Vm7zb0MvS0xLLUMlLLdpbr3Xf2xX/aO4DjtGJA0ieSaLQDbp/8WKa/+60ZDVi0L6Slps+++K6cfE9k5Nw3+s5/yIP/+KjVfij3X/9YmmZ5i2Uklv0rkfanP1PB7F+l+6dfysXX0XK/lMbX/x1eJo12ME3k+vo6br7VAlJouTTaITUtNf2/5MM/iQy+UYHFmd76axVw1J/JefUE+2/e363vSeerb2Rqpn9HXtWj+z6T4T98tpyPRjvEVoAhO0D76kdS/+jbchK3z2U8+43cfqWCRs3O4/Ln//hHqtdUbPbF38j1Jx9LXT6T8+//Qtr6sT/4F3svcNwYsqPRND2s9vv/lXnc/k5aZroOHivM/43tNUX3G/ZvJ3jV//GvZPrvP5Sauq/1M/vYv/j1IqiZwOSuh0Y7tJaPHhKQpVaXxle/lA+Jqxc24AYvE4w8rS/UfV9K5+e/Xl7wABwhAhKQ6c/l8ici/Y8/TwSK8d+uNjyXa/b3cvaDf7Y3lNlUJp/8ieqNAceLgATkqH3+bzL9yUTaH/2RnNjWnvyZHZ4L0IFGn08yw3TJQJZQa8nF5C/jZZ58/Eu5+EWg9wQckdV+GPv7/7O3AADYzMlHfyjD4fJy706nY/9aWK2H5J+XotFoNBpt3VaAq+xoNBqNtqOWj3NIAIBSoIdEo9FotB21fNRDAgDsTN5FDatdZZc7BwAAxXQ8ef5VdgAAvDACEgCgFKoZkGbv5Uz1/U5M68o4cXvRuiQFKx+7n87eO8nh9LSz9zKL/rWTDXe/ejt03FXTosdF89hmZg1MT7czcZ8KgP2qZkCq9eR+OpBmcyDT+XCRldn8PRd9Smyu7pu0CUql1OxI4/bNeoFAPaYzebt8jAo2byfNZfoef9+/tYHNnW7vW7xnotsXcltXX2jMQgDs22EO2dmAFR+YUCKncnnVkP67dcLAqZxfiNzatNvjd31pXKgJIdNHeWi8Wi0nXO2VNOyfAPbvcM8h6YPNw6NM7U2USGsoI2mv1YOt966k0X9nhmffTgZy+dreoT30pR4Nw7UnMrg0febkdN3q/WSW7vGdXDdPybANlAQXNWAvWpfr9mBbct65lrYKKo2rXrIH5A/DvckZsnOD1NtTmd57ywKwN4cbkGZPMuHbb3nVenJzcSvvPtjbK9BBrCkdObcdoKCinnEUpExwogcNlMmBBqSxdEPfpFEqtd6VSN8Oo5lAcpuozjr7cCsPTefiBX1uMLqIJcuqw3B6WSORtr5K004CsF/VDEj6kl59PsAMv9gDSuJ8wVs5nc5lmHvkwv61ZDiKfqmt/jZXvUX78ETqtxcyvcm4eMGVOIckMoqG4YrOIbWGMh1MVFDi8m+gDEgdBADYCR1PSB0EACg9AhIAoBQISACAUiAgAQBKgYAEACgFAhIAoBQISMDWzOT92UmqVMZejbtCmQ1URTUDUqLWzQr1kMyH0rlf36kfE6q/k6qxE1o+v+7fSGqb6wO4e7C0B/RontR2DxxY1923ixvJ9WhF6/LuT9R0smbv30i/MZK5+UX2WLrO/Msg5U733kep57BCCZXQa3W1hjIfNaQf5fcDSqyaAWmNekiz92eLX+9H96k2krv8gFK0fJ1yJu8ggLDaa7kQJz3Q7IO6dSGvo/xO5nZH/efMk9ivyfpFG+1bLbQeLWdduqxFYxStZySNvl/TaSzv+rLMND6+00/Mzj+Vga3nNO6aJ2ymmywRfsTx38fbKKHSupSB9GWtih/AHhzmkJ0NKJO3XXl3qw4S02T+s9awIB9akda5dEjMuYGavHbqGumDvFy8jvMN6tx1cnEp542H5TyuRP2imejZN9m3hevR/FpJqqexTEVVl9M4wZ5lcug5wTUx/1QeHxryqjaWu+tlctia2hjNyVN2wIlrOy16dMvYpXtZugenpr+JUmjZXluilxX18vR2b8rkKXNNQCkc7jkkk6zzWq7NgcBO8xXlOsswe/+WOjobqr1qyMPjIpSP766lEe+cRYC5UEf01nlHHm4/pA/UbuJU3cvZaN+usB4tL0mr37NTZk8TaTrBdcEODZ7cyXkoKWwoM3kiL19U26kmvauOXN/ZiKSfW+dKejU1/Sbqyc/lvjeVbv1RruIe1rIUh7vdgbI6/Isa8gKHOzxiPsC6vEEG50Bhkn5SR2czund5rYfVZvI0cUpJuAd50wO9lQ/6+OkeoP36RZvs29B6ooiUt66YziSvlnCzyv5XAeNer/9c7la9sMAfNozO/cTbbRHIO6EaHLrkilxLO3oNJgGxDXj10/zeGFAChxuQTD2kpjS9kgYbcw8UBKNn0IX2JvI0VoGhcR73GkypiTggtNVh9UFu7x6X210HFLc3EShXsYppaD3RQrLWFdNDZTqT/L3qndhJK9Gv+UFSHZSiml2JHtSiQOHdODnsl+IH4qhntk5pd2BPDjQg6W+xuh7SvdwMRPruyWll3OUquX1qnTek31b7Z9k9kg+3D9KJLwJQbdSRh2sdLqxU/aKWXK69bx/lLrQef9guVCvJnJvJDkZmSMxZzux91+kR6SDSlNN6FFQWU00QzgsS3rChqbLbbstkcBkHciMKWiaAhS9eMEOKp5mhDyiFagYkfXAwwxH6m649aLjDLU49pFrv3ta8ie47kbYsv5kHhZaP7dHDT+q/5HDdQKIL1Awzj8erX7T2vtXnFEPriYYHXd66TPBQ//Wdek2JS7+94T8VG5x5TZEmE8haQxPpzPR6vyEjv2iX+z52aztp+ipF1evX579iKnhe6dLu5vnUZagv5rHLN81cDboI+MvzdUA5UQ8J2BJ9GXr98cr+DukF6N9cZZ7byrHp44At0/GEekjADtR6NzKYtF8sU4O5mGHdsvw6GOmr9Va6CAPYL3pIAICdoIcEAKgEAhIAoBQISACAUiAgAQBKgYAEbI3NXfdCV9ltxJTnWDFtEbBn1QxIiYzGutkfr6am2w9iYrqa195O/LBRTzvrStckw0y3s27XW7Zfq8avsRMl1ky30LKO4qBhtrFbTkFvI/d1e9swa3+6qlIPKV6eO9370XXqOVAPCceluj0kN2eXW5/InR7VtAnWN+pI49avaXMqlyYZpn5sNP/i9v3lqbfsZc0lw2QbcGvsRIk1V1iWaevmR6ugY6qHZHSc57bYv9RDArIdxpCdSdsSSIapc3vZP9NU8LlS3xw3/ZTGNZcWB4yVauwcvSOqhxREPSQgz0EEpMz6RHk1bTR1kBlJu3hYJItJZqkD4Yo1dlyJ3Huq5Q27HJDjqoe0LAURGuJbvn8ciVx21EPCcaluQHI+uIn6RO4HeoX8XSaD8nOHRdwDlJdkM5M/ZHcsecb09jmKekgtGcbrDw3xZfCHDamHhCNyGOeQEgcpO10fgELDeL5aT24ubuXdB3t7Hbaejf7KnVljB55jrIcUGOLTqIcEJBzGOaSQUE2bDLXelUg/GtJZlf6mrGsuvZanVWrsIHYM9ZD01X+JC17M8CL1kIA8hxuQtLimTTR8ob8Zhw5YLRmqA1Oh+Ju1brbmUl0PAWXU2MmLSIll6Ra4pPlQ6e2j/ksO1x1WPSQ9RBbXJdJfXEaLngr1kIBsZPsGtoR6SEA+HU/I9g3sAPWQgOehhwQA2Al6SACASiAgAQBKgYAEACgFAhIAoBQISMDW2LIWL3SV3UZMeY4j+o0bKq2aASlQN8Z86MaL6ek6RzYfmPlwOo9xDhymlIFzX7yMwLqWv8APPY90Sx+f/Ho89nbgselW4YOLuy8M/brd1+Ntl9T2Dbz20D5NrUdJTPO3v1K0Lu/+ULJU6iEBz1PdHlIqZ9e99HRmlGCdI5FpTu0c84NGnaA1vk8nw6wvDzruuuwv4eMDhf88dB60vPk1k5lghdpJ/rJMq3DdJOohqfhJPSQgywEO2YXqHOkcZlm1c+yBJPHDwZZJwSKhfHQ6z9k6B4rA/CvV4zlI1EOiHhKQrboByc8F5w5bqINHos6RzmGWVTvHZFwOHEgSmZY97n3+84jr7jgSy1qxHk8k73VWEPWQHKH3mPu8qYeEI3M4Q3Zenq5UnaO8NP/P4T8PPcxm7wpyD2arJGEteJ2Vo18z9ZCyuc+bekg4Mgc4ZGfVnDpHzaY0sw785ltq4L68WjVFdWx8zvwma3R84DvG2knUQ4oVvY8SPSjqIeHwHW5AUpZ1ji7kKrN2jq2rk7gKSX8L7utxnYxvyLoO0qo9FXf+RRmAY6+dRD2kaDL1kIAE9aHMVTzHHkwHc/WFU6d8dVpzPhip6c3BXH1DXBp15upbo5k2HTSTj1FHpoh/X3xXal1qPdEKgs/Db978/vObj+adrHmyXmdyARWkX3NH/d/K3C7q9XrTF/tpuQ2C+zS0vGhbZm3/wHvHXVdqPao1EzsisB+deZdvNfu6THO2gZba39796tkNmun9r2Kqmd88H38Z5jXpx7nPAdgP9ZacD4fDuPnI9g1sCfWQgHw6npDtG9gB6iEBz0MPCQCwE/SQAACVQEACAJQCAQkAUAoEJABAKRCQgK2xZS1e6Cq7jZjyHIGyHUAJVTMg5dWN8e6Lklpm1jvC7qRq9+gDuHuw9OoUpfZz4MBqDrjOPPqNkFqPkpjmrUcrWpd3f+j9k6iHlDm/Tj8UTfeySqSeA/WQcFyq20NKJKGMEqnqND23cjGNUsOMpPE4VZ/ZgnpH2I1jqoeUMT/1kIBshzFkl0gc6ZYkaMlwKOvVO8ILOqJ6SMH5qYcE5KluQIozNqsW141ZJK806fejT6/JqOwcKCKJTMrYleOqh2QF5jdC78Hg+5p6SDgOBzJkt/zgtYZ22vnd4kP9Rh19UB5HUw8psub8Ge/r5XbT8Yh6SDhMhzFkF/qmqU/mzkfqgPOgPpTeuQJt3ZpG2JJjqodUMD/1kICEwwhI0fCKHj93TxKbD/xARmvVO8JLO4p6SMH5qYcE5FIfylzFc+xBZt2YRd2X5fTsujnUhtmnw6+HlD0/9ZBwvNRbknpIwC5QDwnIp+MJ2b6BHaAeEvA89JAAADtBDwkAUAkEJABAKRCQAAClQEACAJQCAQkAUAoVDEi2lo1J/ZJsy3ISRXV1bOZkOz1RhkJP04+L/rWTDXc53qW9466alleXBi+zvd15bHP3rTs93QL1lQDsTQUDUk169zbti8455uTuuo9ytJgEmnl1dZw6M82ONG792jYF1GM6k7fLx6iD39tJc5G8E/leYntn7lsvr5v3fknVPAKwVwc5ZFdY7yaRaPJULq8a0l+retmpnDt1fcbv+tK4UBOwghfe3uskEdW53+yfAPbvAANSRr0bt7RAXGfGag1lJO3ictGOeu9KGv13Mjbf1gdy+dregWLb3t5Z+9adrltcE8nKq3kEYOcOLyBl1dXxh2oS2b9tJuW1ykXbYoDqINdYN50Ltru9s/ZtaMjODVLkdwNK5eACUmZdHVeoflKtJzcXt/Lug729An1QbUpObRpke6ntHdq3rihImeCUMx+AnTuwgLRCXR0tY6im1rsS6dthHXNgSxaAM8Gu6ZxM13VzogJoWNuLbO9Vh+FCNY8A7NVhBSQzXDcQ9/SQGbbT/ybOM4iMgkM1LRmqABb/ba7Cso9RrX57IdMbLl7Yni1t76x9W3QOqTWU6WCighKXfwNlQLZvAMBO6HhCtm8AQOkRkAAApUBAAgCUAgEJAFAKBCQAQCkQkAAApUBAArbGlj1ZJ0nfSxt3hTIbqIpqBqRgrRv1oRuvUhvnTM6y6il1u+HHJ7i1lnJqMwWWdfQHBr0fEjWP9PZzt0lRHavA9jMHXGcevcNS61ES07z1aEXr8u5P1HSyZu/fSL8xkvlQ/zJ7LF1n/uXy3OlelojUcwi9/zyh1+pqDWU+akjfy90IlFF1e0h+4sz5vfR0vphEos2BTNrqQz3tyX1cC+de7rPqKV2ehh/vHhQStZZyajP5yzJNPcdjzuRZey0Xbo0qNxFufDuvjpXO5LA8iM/eny0yMzjbeCR3xamAQuvRctaly1o04pRUI2n0/ZpOY3nXl2QWebWG5XNb7Ptx1zxhM81kifAjjv/+WysBbYbWpQykL2tV/AD24LCH7HS+sud8qAOPL6y1hBw1ee3UNdIHebl4HadwKty2ifpFizIjg2kyt11rWJxbcKV9mFiXonoapuNj1OXUr8Zocug5wTVoLHfXy+SwNbUxmpOn7PdmXNtp0aNbxi7dy9I9LjX9TT9OJmx6bYleVtQr09u9KZOnzDUBpVDdgOTnKcsatijK/lwk8fiMWktZVn2OR6T2qiEPj4utOb67lsarOBwVb1s3caru5Tw0JH64LzOP3Yr7MC9Jq9+zU2ZPE2k6wXXhWtp2/aEhvuB7033ecW0n1RO/6sj1nY1I+rl1rlSPS02/WfbM73tT6dYf5SruYalenh2qc7c7UFaHM2S3i7o27oEoqrWUF2H28RzLTm+3az2sNpOniVNKIrRt9fHTPUD79Yvysnr7214Pqerpefswb10x1TupqyXcFO3Llgzj9YeG+DIkhuyWAWW53RaBvBOqwTF7kokTBE0QjgJe/TS/NwaUwGEP2Wn6Q7pKOYIszuNNOYT4oGVrLeVGJKTpQnsTeRqrwNA4j4fXgttW17GKDtA6oLi9CdO7KPhCEDDN24dZ64rpobK3cjpd91xgYIhPK3pvJnpQiwKFd+PksF+KH4ijch3rlHYH9uTAA5L+Nvuciq7u4zNqLRUN2yGldd6Qfltt12X3KLxt3TpWqfpFLbkciPTdCw+Ucde7ci3hUe5W2YehWknm3Ex2MDJDYu5yxt3lOZ94eDEKKtFkFRzzgoQ3bGiq7LbbMhlcxoHciIKWCWDhixfMkOLpxl/LgN1QH8pcxXPswXQwV184dVEMpzXng5E/XU1TXxeT83fmo8VSFtObg7mexUgt1z4+us+d1xjNO+46cpflLe+o6e2Wsx8MPY/aZt706aCZ2I6L2842VtEmuLxof2TtQ/3eyVlXaj2qNRM703kvaN7+109rwb4u05xtoKXeM9796tkNmun3kIqpZn7zfPxlmNekH+c+B2A/1FtyPhwO4+ajHhKwJfoy9Prjlf0d0gvQv7nKPLeVY9PHAVum4wn1kIAdqPVuZDBpv1imBnMxw7rDzzoY6av1Ci/CAPaPHhIAYCfoIQEAKoGABAAoBQISAKAUCEgAgFIgIAFbY8tavNBVdhsx5TkCZTuAEqp2QDIfNp0CxjZ9IEjVlLEfxkCtmeQH1a+RY2+nHhNqajlZtZgSnrmOqh9UUrV79OvP2QdZ+9KV9R7wE9kmpvn7QSlal3c/9ZCA7atsQMqtheMnqIzSy6TyfDlpYEzSTbdGTkatI/dvdzk6K0tivUW1lPSENddR9R+SUA9JxU/qIQFZKhqQFiUEVqqFo/N72T/zrFQjZx3UUgqgHhL1kIBs1QxI+htuXi0cl5ugMs7ybJszhGOOUepostU6R4lszS+0joqhHpIj8f6w3OdNPSQcmeqeQ8pL2+9+qN0cXv4wWDTdPcC8VJ2jXayjCuK6PtRDCnKfN/WQcGSqGZDMN8ucA3r0odYHIf8baIApAxAfjLZY54haSgHUQ4pRDwlIqGgPacVaOKG6Nil6COcl6hzpb9LUUgqhHlI0mXpIQIL6UOYqnmN/Vq2FE6pls2jhOjiLmjVebZtonlTNGmc5/rTQ42MbrCO5gArTr516SNRDwrFRb0nqIQG7QD0kIJ+OJ2T7BnaAekjA89BDAgDsBD0kAEAlEJAAAKVAQAIAlMJK55AAANiGvHNIhQEp5Pp6uUAAADbBRQ0AgFIiIAEASmGjITsAALaNHhIAoBQISACAUiAgAQBKQOT/Aco7BASZ5sH4AAAAAElFTkSuQmCC;" vertex="1" parent="1">
          <mxGeometry x="510" y="140" width="420" height="160" as="geometry" />
        </mxCell>
        <mxCell id="5o37a4prMIWbe8hypCf2-11" value="" style="shape=image;verticalLabelPosition=bottom;labelBackgroundColor=default;verticalAlign=top;aspect=fixed;imageAspect=0;image=data:image/png,iVBORw0KGgoAAAANSUhEUgAAAcIAAAEACAYAAAAgOHb6AAAAAXNSR0IArs4c6QAAAARnQU1BAACxjwv8YQUAAAAJcEhZcwAADsMAAA7DAcdvqGQAACi6SURBVHhe7d1/jCNpfefx78zsDxJ2AkdALAKtEGoPS2NIcpdEWveFJESbi3vg0soP/5M/RhfduZXkRFvHtThF/WfrdNFIJw/SJec+KVH/kX8cQB0t40aQIAXRjRSBQiJndjXunAIiB5slJAO7LLs7O33P96mnyk+Vq8p2j73tcr1fq4J2+Uf1PHbX189TVc/nwqkhAACU1EX3/wAAlBKFEABQahRCAECpxY4RXrjgfgAAYEmMOxNmpBCevvJddwsAgGK78OCPnKUQfs/dAgCg2C48eHlsIeQYITDOye/LmvlWqd8sdVn7+GflxgeGt+PLlpy4p1n63A/8vpwkXkOXzc94j0ncFy5rH/879yDDvtaWbGZsO/ZYABNLKYR6oJCFhSVY/kw23/MpaTz9PTtacvrKp6T69EXZ+oK7/fTvSe2J35NB9PPjKa/hlvBx7rH9D2sxTLkveq3/INVPbMqNE+815HHZTtu2WY4+suI9joWFJVhE9vb2oiXNaCFMex0WljIv8l65UglvPymd//1k4n73/8mfk+vC/9el8tty9Iwphv/d9BaT94WLFr3ffa+0/ufnvHXu/7Nus7CwxJcJMDQK5HpSNv7TH8n6A5flwm+ZgjRLKxWpfukZGejPX/qYVHQb4fL4x+RY19c/Lj35Fdk81BsA5oGhURaWMUv9D56X07tm+fefDoqULYjh/aHkz8n7Q8n73P/rEKduI1xMb7Fm7zDb/6jrOdrbyn++Cm+zsLCMLuPRIwQmZXpnp3c/Jc3/82mZSQftZCD9J94tOuqaa+V3ZP/XPynXe+42gJmiEAJ5Tv6XrP3WZ90NI6942aHOT8pN77TRk94n5bhaET2NJe6zsvn4x6T6u7+Tct+olY/8N5H/4oZLAcwUhRDIs1KXRv9X5MIDjwTL45+Uxh9lFa9flM4zvyrdx91jzVL5k1+VwR/8YnC3PQ4Y3vc/ZPWZ56VTD+6K32eW8BhhxLz2U7/pfgYwS6MX1N99wd0CAKDYLjzweul0hpdNNJtN99PQaI8weZyRhYWFhYWlqMsEOGuUhYWFhWWJl/E4RggAKDV6hCwsLCwsS7yMRx4hAGCpjTtZZvSs0TFxFQAAFIXWtenPGgUAoEQohACAUlvgQngiN9YumG7t6LJ2I5zDyj1m7UYwIfHJDVlLPDZ31n73+OHrGeFrhK8Z0vW6Lrw/8cKHmynPKaqsdgn//Wlto22S1y7+Y9xiH5qyfnRZE/9XAYBZWuBCuCJbR6eihzBPB22p1doy0J/NcrTlJrg6uSldaZr/usP5Hb3H6fP6u2OKU60p1e616Xa05jnN/u7wOWZnvtuvubSAJTGPdsl6b/z17j7//T4dNKRb2ZzNRNcAkFDoodGTm12RxrZsVI+l6890HBrckuPqlTGTGq/K9k5VWten2c2uykZDom0eXm9JtWFWLJU5t8tE742zckWq7kcAmLUCF8ITsXXw6orUN5py3L0Z9C6OW1IJh9TW+9LeDmc1zlHvSE/Wpwo/rWztSLV1XQ5tr6ct21fdHctk1u2S9d7463WptOITTh8eyF5tdXxcEQCcQXELoR0WbYipg2aHvSHN467c1Kjv5JDatTFDo059e4Jh1Ji6bDT3ZN3stKs7W5P1bApopu2S9d6kDY36xXF3VQZHy9vGAM5XYQuhDoseRzvLddkzfYjuwS13r6NDase3ROvjWCtbst/oyvWb7vYEtEjUpCkbE3Q6C2te7TLuvQmLoy2KE76HAHAGBS2EOix6LM2e14voNeV4T8uhZ8ohtZWtHZFWS45rNbPz9U7AMWzhTR7TMkXi6LRj+kDLLWoXe0MLWErbaJu52xO1y6Tvjb5WT2T9AifLAJiPYhZCOyzaltjhPx0e1f+PHYcS6U01pFaXjimoIg3Zt2cqutcxS6XbkEGUolo2Ybu4n9PaZn+Ck4Wy3ptxxwjrHRm0+6YYchkFgNljijUAwNLSusYUa9ahbPo9jmihhwEAZVeSQliXTngsMbYcSXhtPgCgnEpSCAEASEchBACUGoUQAFBqFEIAQKlRCAEApbbYhVCz6vzsu8NNe9lDOAn0yY212OUQNj9Pn+Ot02WiSaMTz1vb3Ey8TolmNnFtQR4hgDIoTo9Qd5iaWDA4FZ3gRYugndEkuhSiJ9VWRdau30pM7tyW/vq4Yngom5WuNMxrR6/V78dfR6f5ShaAZUYeIYCSKEYh1CJoC1V43d+hXG+JtPf96dN06q+2SHK+UZ2r0t/pZqrKlejFzGslpwyzCRdlmvyZPEIA5VCAQtiVa7EiaJzcln7NRTD5snaYY1MoXHSQDsNldB1PbuyWLxOPPEIAJbD4hdDsERtt0zOZMFfwrOodNwy3cRDsjK91YztoOwxbwkw88ggBLLvFL4Ta89vqyKDRlUrYNUmJArK0p+h+jLE9yAl7FKYXpMcIm8fHcuzvoMu6IyaPEMCSK8zJMitb+9Lur7szGeti9rWJXqKe8NLSqcWHJ2dYwfrcFHk9BumP/2UV1JIijxDAMitMITR7RNkye0R7ZqgphitbR0EvMRw+swF3p3K0vZo45rQrq+5M00wrV6VhimzweLPoMcme9moQII8QwPIijxAAsLS0rpFHGEMuIQAgrmSFkFxCAEBcyQohAABxFEIAQKlRCAEApUYhBACUGoUQJXQiN9YuZM4rWwg2koyznYFZWOxCqDO+jFzq4M8w4nZoYTxS+PjEDi7KxHO3MYa2Y6y9tJ39nW5Gu0dLyg7aZUlGi75HI9sxYusS21HjtpW4P5ap6JzcuCatak9OE7MsxD8n/qU2/mcubX3WY52R33lMLFhauyTpVIC9+c/BC5TB4vcIkxMy+1N3ndyUrjTNf96UX+My8TCezrTjt6ltZy/tI7XdExNqe/mBNkDZTvwzfB97cjBaMJLStqNytqXxTtVeuB2diSiZqegivMLkC0eL4K7ZUvg5OdwMZirS17Gz2rjKlbY+67Exsd952onMM9S3pS0tmSopC8CIQg+N6hyX0tiWjepxlIE3VSYeMqzIVa8NtbhI42o0V2t6u3ticVgnog9vD+Jzj9Y7Y+YiNcZuR8W2ZZie0rCjV5HV5DcgO8dpPMJLC/Xu6iCYns86lIO94aThK6Yxav3b5l+Stn5XdlMfmyPKYgx6vMO66XqWOsWcm3bO9mhjPUq/B6zvU036t3O3BmCMxS+EyXkoo6GnYAfbMHu0+kZTjrs3o51PbiYeJrJypSrHt4LMh8ODPalGqcXZ7R7xJ9TWXt2xH3qckDnP6ATbUXmTdyd7ssbJ7b7U/KJuiuA12ZejvBkVspIy7Prj+LyoWY+NzbMaZjGuyNZOU/YOXCXUf0uzFyRuuB7k0dZANiu3ZCfqTXrxVYb/PgE4m+IOjfo7OZse35Wb0f4gJxMPk9E23dPhyxO53fcilbLa3d/RJ/MD81Imku+vFgFdn7adcO+ft62I6V3p5On7ee+/FltTyFqVYRHW117bnX36SHI4NyxmUTsHXziayewqm4TiQqOj39ErtJXV8T1QALkKOzRqo3+iHeK62VUcS/fglrvX7F8mycRDDv0y0Zfbh6YgVTeiYczMdg939Mn8QNtDShzjm8AgbTvhi2RtK6JDjJo6Mm7qPE00ccUpfD197aOd+HBrVp6lXZ84/jxJ9mWs1xh8aTs4jA+7xiS/LPjHyaNhVgBnVdBCGHyTb0YnRZil15TjPd1dOpNk4iFXfaMqrXXTqx52Bydr91h+oMuO9E9oMQ4347fjbslB2naSw6NpWYX2eFp2EbRDiVnDrJGwOAW3bPG3xSZt/Y7spD42R2I4V7+09dfXpd/eHn5ew0Jpi2b2CTF2qHc1t+wCGKOYhdAOm7UlduKfDjG5HzEjtk2Tw6ITtHsiP9BmR9rbbnjPLOsy7GWOON4zPcCU7cSGv53EtmwhMv+1vLzE2CUU4evkV0LzsrbC2udXWlXpuTNw0tZnPTYm6t2axc9iVHqWrulZ6vHQ4PaWLa7aXms3KtIxPdW+e327eJeX6BeT4fFbAGdBHiFKR0+QqdzaGbmO8NzoNZaZxzpznPV5QIloXSOPEEhY2dqXdn99YWaWsSfJTHtSlxZBPfs092QgAJOgRwgAWFr0CAEAGINCCAAoNQohAKDUKIQAgFKjEKKEXLzTgpw1eibkEQIzs9iF0M26H7sgWtfFstoysvESO7koay68P7awQ4lJbWO/jTLaPK89ySN09wdLbg1Oa5ck8giBmVn8HmGtKdVuMlPOY2c7mTKTcGTuxnFzUpYMeYTmNnmEQFkUYGh0VbZ3zDffjL92nVKLTMJZI4+QPEKgPIpxjNDs3HqynjKcFOxkp84k9Od91GXcMFQJkUfoiaVFeOx68giBoivMyTJ2hv7kcJK/oxuZlDknkzA5NMpcjaO0PckjnJ3kcC55hMDCKEwh1Bn59xtduX7T3TZs0kC0UySTcLbII4yQRwgsteIUQmNla0ek5Q+dkUk4T+QRBrds8SePEFhahSqEuoPqmB2iZYfOzphJGPU0woXLJ1LZ9kwOi5JHmFxPHiFQbKRPoHTIIwTKQ+sa6RNAAnmEAHz0CAEAS4seIQAAY1AIAQClRiEEAJQahRAAUGoUQpSQi3dakLNGz4Q8QmBmClEIbYyPXkjsluACabcz89bH7j9T/h2skTbRtvZ3uomcQDubi9fWaTvoM70fie2ocdtK3E8eIYBxFr4Q2oufuw1vrkXNmKuYHZwM54kM54h0j9mXa2fLv0OAPEJzOz1jkDxCYPkseCF0O63YRcN1O+WUZM4XGcT3nCX/DiHyCMkjBMpjsQuhnck/vtOyYrP3J2gv4kz5d/CRR+jJ+rzZ9eQRAkW3nCfL5MXg+ENUdsdidjruLnh0cmryCGcnOZxLHiGwMBa7ENpv14njQyov8y3rOZgSeYSRrM+bXU8eIVB0C94jdFl2sTPj9Jt+K3bMKu4s+XdIQx5hcGuYMUgeIbCMFn5o1GbZNbrDobDg9MPcYzpT598hnQ7bmf/iw6LkESbXk0cIFBvpEygde0kOeYRAKWhdI30CSCCPEICPHiEAYGnRIwQAYAwKIQCg1CiEAIBSoxACAEqNQggAKLXFLoQT5bj5mXXu58RzdEnLpbPcNmL3T5IHt8xm2e6bmyOvRaAsgEWy+D3C2GTFwQwbsZ2yne0kzKzz5o4M5410z81NF6g1pdpN5taV3KzaXaONRubKHDcHKAC8doo1NKpzS+pO2Qs11Sm1xmbWjbUq2ztVaZFwmm5u7Q4A5694xwhjM/dPmFk3iXpHerKeMgQI637a3Z9nU5cyDzsDWDjFPlkmL7PuDGwKgNfrQYZp2z05NMrcmAAWSPEKoZf3ZpMGsjLrzmJlS/YbXbl+093G0DzbHQDOUcEKYZBFWLUTFGdk493P8KixsrUj0moN8/VgzL/dAeC8LH4hjB1f0sDVU7HpOVnZePc5PGpeRDpmx156s2z35DFCLp8AsEBInwAALC2ta6RPRA5lM9YroXcCAChVIaxLJzymFVu4uBsAyqxEhRAAgFEUQgBAqVEIAQClRiEEAJQahRAAUGqLXQhfqzxCfxLow037+FJPvk0eIYASWfwe4axy8Sa5RkILwHpf2uEsKmU2q3YnjxDAgivW0Og8c/G0CFa60hiwkx5BHiGAJVa8Y4RzySPsyjWKYD7yCAEsqWKfLDNtLl6WY7NTb1eldY0d9ESmbffk0Ch5hAAWSPEK4Txy8Wpmp77VkUGjK5VSnyWTgzxCAEuqYIVwvrl4K1v70u6vZ59hWlrkEQJYXotfCGeZizeWnv3Yk2qrQjGcZbsnjxFy+QSABUIeIQBgaWldI48wQh4hAGBUiQoheYQAgFElKoQAAIyiEAIASo1CCAAoNQohAKDUKIQoIRcbtUizCNn4L85gBs7DYhdCl4sXu7g9mR8Yk5aL5+9c/Ay9BJdDGC1ra6Pbyd32Ehn5d2q75bSje5/S29xJtq8WobT2jK1Leb/GbStxf9rECCc3rkmr2pNTO0NA4rKaqDj66zfNLc/I7zBBfmXav9VX78hpj/lugfOw+D3CWlOq3WsTflP2cvF06TWDeUTDyyNiGXpunXFyY00urIv0vMsqetVjnYu7nFauSsNvI3+S7eh2oh1j+YXm2ZVh8UhtXzmIF5c0Ge9X3rZkcEuq0fRvOktQ8rNzKNdbIu1wapzDA/3F3OMH0u7v2scfbtpf2K4ftPuynqx0sd8hHlF1ZvVtaUtLro9tGACzVICh0VXZ3jHflKfeO5hv9Bqyuz9MOkjP0AsihdqDjsRmDdtuS839XD4rcrUhwzYyxUUaV8e0o0cjm9yPme3bid9OM1HmYWxbhulZDUOVK7KafBNN4dvzvxzFHj+QW8dVubJyKAd7Tdlw61dMY9T6t7MLnWmf4+oV0z5BD3ZYM7VXqT1Ws/5aK5qo3PZSY73KsFer7V6T/u3MLQGYg2IcIzQ7q56sjx9+8ug3+n5737tYPiNDT3sddudnHxSXnCOzYnZm7q5lt3KlKse3gvTBw4M9qUYNlNGOPltsgqSK3PZVmW08wXaUv62kZE/WOLndl5pX1ANuCPbCgWycphToWBaj4//e+oXL9jBXZGunKXsH7oOqv1tzx3wGzfr9YXL/0dZANiu3ZCfqUZperRsS9dsdwGujMCfLaA9t4uGnw01Z77dl358yxt8pJieJztqRJnP0BiXqJWob7enw5Ync7g97R6ntqPttvzDsrsrAzxzMal+V1cZ571fetiKmN6Zhy96IQLZwSH1DDtKOb6ZJDs+Gx/aidtM6uCfNqOE8Gmkle7Ie/hu0+IeFtrKa3/sEMHOFKYSysiX7ja5cv+luZxodElWZGXr2237iGBSMumw0+3L70BSk6kbUS0ptx4Nbw8KghczvPZ2xfQdZ75fK2lZEhyQ1MWPa6fP033wsIx0yL4sxVazHqK+xJweH8eHVEckvAGFPNBpmBfBaKU4hNFa2dkRa+cOTo0OiSofZsjL06mI6m9LyT7gwDq+XZxg0S32jKq31llSH3cH0dtzTMuWYLyxHPTG9nbA9M9p3M3477pYcTJJ5OLItwx57yy6CdujRe52TG5teD1CLV01WK2ExC9ba4p9XnBLDs3b0Yl0/h9tBcQuFxdIWzvSTYuzQ7WpmyQUwB4UqhLpT7eiZoJl0R6YjZ5VgyMkuZidph9myM/RWto6CMwOj51yQ9X6txCfLONpG5r/4sGhKO7ofI/WOa89gmDG1fWXYyxxxvGd6gBnvV7K3ltiWLVrmv1ZluK3YJRTe+65MTfIeq2eKBgW03rEV1q6vtKrSG55RE/CHZ+3TvBEIPeu2VrPHNyOmaO+Y4qptsHajIh0909S9vl3spRXBF43h8VgArwXyCFE6ejlH5daOu45wDvSaycxjlznO+jwAmbSuLXEeoR4H8r5RR8uEJzugtFa29qXdX5/bzDL2JJmdMxTBlGPbAOaPHiEAYGlpXSOhHgCAHBRCAECpUQgBAKVGIQQAlBqFECXk5had01mjrwkba8UZ0sAsLHYhdDP0T5xHOHKf7vCGOwsbBxRdZuG9biwJIFiKvI+8b2PaMbht2il8zEj7peyg7Y7be4w2cNp7GVuX2I4at63E/ePzCIcON81zom35l+f4s+Ckrc96rDPyO4/5fKW1S1Kd/EJgVha/RzhNHmFOjp69iLrb8OZ31Ky6ynBHGZtEeUb5ckVVpjxCR4vgrtlSOJtQVh5h2vqx2YVqHp8v8guBmSjA0Og0eYRZOXpu5xe7WLlup7kyDx7dIZV+4uMS5REaWqh3VwdytL3q1mTlEaat35XdabILVfT5Cnq8w7rpepY2jSKYws1+UYv1KP0eMPmFwCwU4xjhFHmEqTl6Nj0gvvOz/NSA2NyRYb5ceZUlj1CL4DXZl6O8mAr/c+Kz63VmU0/WY1M/X2n5hb0gVcP1IPOyCxX5hcD9K8zJMhPnEeqkymk5euMkh9vKfuwlqx394uJPhO3v6AuTRxhMch1N0h72xNZ2pe8eMTNZn6+onYMvHCP5hXnZhYr8QuC+FaYQ6uz9k+URpuTo2W/pieNMKitnLutbfamUIY8wDOQNC5TriR3txIdbsz4ndn0ipSTrsb7Y52uC/MLklwU/Rb/0w/jA/StOITQmySNUozl6LhMv1svTHkMrduwrkjfcViJlyCNMl5VHmLZ+x8YrTZxdqBKfr9T8wrBQ2qKZfUIM+YXADJidTCR+awEM2qfmG/qp+TY81Guemm/I8XUjeqdNaZr/jRu0azqleLSYHW14x6n5Vu/dN/rcckq0Y9r7YR9j2iyxPmjr2mnbrUy2vVa51NcL34vU7ZjX640+x9/WyHbMUgt/Ccu9TvzFA7Hfx/277OJ/HtLWZz3WGfv5Gpy2a/HfydR9+1j7uyefH/2O+jzvcwxghPmTOe10OtGShvQJlI69lGaeeYTTIr8QmButa+QRAgnzziOcFvmFwPmiRwgAWFpa18gjBAAgB4UQAFBqFEIAQKlRCAEApUYhRAm5eKcFOWs0F7mDwNwtdiFMyXGzeW9ufXZOYU6OXWLnF2XQpW6rpDugWFsqbU+/LRLtO9J2Ke22qHmEmY/3L8/xZ8HJWm+M/G4T5FrG/r0pyB0E5m7xe4RZ8yzm5RRm5tiZdf3d4XPMTmi3780VObKtcXNVLqky5RFmPH6aPMKY2O9G7iBQBAUeGs3OKczOsVuVDS9n79DsEasNswIJJcojTH38NHmEOckPubmD2pM166952YObm16P0u/pkjsIzNPiF8IogSBcvG//qTmF+Tl2la0d863/uh1e3e23Zfuqu0Mlt5U3ZLXkypJHGJPyeCuWFuFJW+//e3JzB3dka8Ws3w+zB01vdE/IHQTOQXGHRp2RnEJ/Z5bMsbOCBIF1s8OtJqe1Sm6rzHM4liKP0Dft4zPEhkbJHQSKoMBDo04ipzA3x87R4lmTjOw3OGXIIwyNeXxuHmFOkY/1GMkdBBZV8QuhMcwpnCLHLtGzxKhS5BGmPn6aPMKc4jRJ7qDSYmmLJrmDwHlYikKoO66O2VGaPbLpObQlPCHQ8ofvxvGH3OySchlAmWjb+T1nO1yZ0r7ux0i9E5xR6dpvZevI3R627boMe5kjpnkfE9uyxcn816oMtxW7hCJ8Hbcq6/H1jq2w9nalVZWeO6Mma33E/wzpCab+sK2ejVur2eOeEVPMNdh33Ty432yaQumeq4t3GYl+ARkepwUwS6RPoHTOLY+Q3EHgNad1jfQJIOG88gjJHQQWEz1CAMDSokcIAMAYFEIAQKlRCAEApUYhBACUGoUQJeTinV7js0bPhDxCYO4WuxDaWT8SF0TrujGTYdvYH/O8cAme73Z+3vro/tis/8Fi95Fu+/56u1M6HP87FNpIG2vb+Ttj15bhY0baKWXHvah5hJFD2Yz9LjrtWvg6/iw4WeuNkd+NPEKgCBa/R5iXO5jCXizdbXhzNmrGXMXsEEW2jtw6naPSm9fxaHs1MVmyToVldmI6f+nI/I9HsrXsM12VKY/QCL446XymQ+QRAuVRgKHR7NzBUW4nF7v4uC4ds0OSrBifNDqHpe7E7PylZVSiPEJDp4CzX47cbf0ckUcIlEcxjhGm5g6msGkA8Z2cFUsBmFC4g03OP5o3jLVESplHmCXr85O2PjbXKHmEQBEU5mSZkdzB10pyaLQs8z3q5NSlyiOckeSwLXmEwMIrTCHU4Uo/dzCV/YaeOJ6kxuXGpbE7pjIrUx7hGFmfn3Gfq1iPkTxCYFEVpxAaw9zBLC77LnaGnfYMWrFjXOMFz6m2/eNG5VOKPMJU5BECpWJ2MpH4rQUwaJ/Wau1T8y15qNc8Nd+c4+sSBu2aTh0eLWaHGpd8Xb3tPd58NT9t650j6919veT65mlyE8uhd9r0/21p74d9jGmDxPrgPXDtGN322kzflLTXC9s8dTuu7XO2NbIds9TCX8Jyr+OtSv+8uH+XXfz3N2u9MfJ5SX4uBqftWnzbytR4+/hasxl/fvTv1OelfI4BjGX+lE47nU60pCF9AqVDHiFQHlrXljh9Qo8DuRMLYkvKxdyAhzxCAD56hACApaV1jTxCAAByUAgBAKU2t6HRO3fuyJePn5J7d192a/I9+tj75H0/9lPuFgAA92+SodG5FEItgn/71S/Ky3/9G/Lwxe+6tfmevfxR2bh23d0CAOD+ndsxwq8cf9oWwYcuPu/WAMC0XAzX/ZzdS54jJjCXQvjq3Zfk8iOvSuVnnpR3//yHMpd3PfFBufTQQ+5ZKUby3dwMImkZbt66qfMI3V9J+vNKaKTdvXzGlEnHM9st63WACUS5kdu3vc+R2QfY4ubPTKSXUiVuh59T8hwxgbmdLHPpwQfljW97TO698rK88J3n5O5LP7C3X3nxBXv79N49ecOj75CLly65Z2Tw51/U6bTGpD8M9GLpafMIt1bszjz9eSX98/Hb3bRX1oTnY9ttwtcB4rzcSBeLFvzNdqSuaTTNPdmNvsDuivSCeVmDL2XxbEnyHDHO3M8a/f4/f1u++61vBMXP7Ayf/6dn7e0X73zHPWIKNoUgbZLlUFd2z5RHOKMcw2WVOeHzlO3GxNGYVEpupK/ecaHLhzfkmvkiZtOujNFsSUWeI/LNrRBq0bv36l15+/t/Wh7/4IflsZ94QtfKO3/yA/b2297z4/Z+fdyk9JtfNImxH8Wji42tOZbjs+QR2hSBMzxvmfntG+XqJUzSbpO8DpAwPjfSTea+PlnUFnmOyDO3QvjS89+TZ/78T6X/mU9kLrf/4tAOmebydqR2CC6cb9EfctNl5Fsg7ktsSDMeEjuVWb0OkKDFbWLkOSLH3Arhw49clsd/4Zel+ku/lrlc+dm6PPDw69wzMvg70nGTDtdqUjtLHqHtwcwox3AZZfWMp223MvewMWOHsrku0pv0RBiG5ZFjboVQe3AXLz0g//A3fynPfP4p+fpffUnXyt9/+Qv29jef/qq9Xx83Ow3Z0eGSqfMIZ5VjuKQSuXpDU7Zb5usAceNyI6MTZCY8EYY8R+SZ+8kyP/yv3iw/8ug75PVveosteo/86Fvt7R96w5vcI2arsnUkg0bXO36oXxuDM0Pz6EH2szxvacWO7ZmmCHvjsWOzmzIY125ZrwPksSfGudEGvQzHngOgn6Xg8gk9TBIcbl6RrX0NPA4un7BnjUaPDS/XCQKlq1f45CHdXGaW+dxTfyhvem5LHvs3/1YuPfCgWzvqlR98X772lS/Ksy9W5XXv+m158sO/6e4BUHb20pxZ5EaS51hqWtfOZYq1zx/+scjgI+7WeA+/f1/Wfu5D7hYAKJ0EoxJcVH/WYhjmOQ6OpKyDO2V3boVQ5xp97h+/6W6N99ZH3y6XL192twAAmI1zK4QAACyCSQrh3E+WAQBgkVEIAQClRiEEAJQahRAAUGqLXQgnyrNzOYM2nml85uCIcBuJFz7cNOuiyCd/G87YTLQCm2W7b26OvBZBqQAWyeL3CGOTNusMEomd8slN6UrT/KezUKzkZg5mqpnn93eHO2dTCHb7teEk3rFtuHU5mWhLYVbtvr0afy27cE0XgMVRrKFRF9Dph7ue3OyKNLZlo3os3ZHZnye1KhsNjdALnn94vSXVhlnhZG0jKxNt6cyt3QHg/BXvGGEswUDnENT5nVekvtHMnaR3nMrWjilq1+XQ9gbbsn3V3ZG7jeky0Qrtfto9Nj+pWfwhZgA4Z8U+WcYOz7lgWH+S3jOpy0ZzT9Yrpje44xW1MduYKhNtWUzb7smhUeZ8BLBAilcIvaw7HZ4LZ5nX1IM9ub9hurrp3tWkKRveEOcgdxtTZqIV2RzbHQDOU8EKYZB1F/TYgmiVZs/rafTub3jUHgs79U94uSUHOduYNhOtuObc7gBwjha/EMaOL+3K6uBU7ET0dniuHT9B5b6HRxOO90xvJ2MbN7Iz0ZbCLNs99lq6cPkEgMXBpNsAgKWldY1JtyN6wbvfK6F3AgAoVSGsSyc8phVbuLgbAMqsRIUQAIBRFEIAQKlRCAEApTa3s0bv3LkjXz5+Su7dfdmtyffoY++T9/3YT7lbAADcP61r53LWqBbBv/3qF+XS4D/LI1/7jxMtf/fVrns2ACgX7zWaATY5G5fGmeHIN5dC+JXjT8vLf/0b8tDF592a+5DIxrO5grF1wUXsJzfWosckHxfLItR1sUmfk1mD2dl6ui3vlYavlfgdY394I/cl7l9EKb+z3ReNtF0gte2DO9JfB5jAyY1r0qr25HT7tvc5Mn/vWVmgic+b/RzWO3JahikQcV/mUghfvfuSXH7kVan8zJPy7p//UObyric+KJceesg9K41O7dWVxiC81KEn1VuDYCq0KPeuIxWzI9ZZXoYTOw+kcctN+VVrSrV7Lbvw2JlS/KzBjGw9+/OqfUoqf2LpQUO6Fe8PtYh5fLF/TzyCyadFMN72Gk1VGRbDCV8HiDuU6y2Rtk5hlPh7r2dlgQ5uSTWa+s9FpOlDln4KRNyvuZ0sc+nBB+WNb3tM7r3ysrzwnefk7ks/sLdfefEFe/v03j15w6PvkIuXLrlnZKnKlaho1KVj5/nyuT+YWAySKWad8PaqbO+Yb4QZfwVzydXTyCL341IwO5jj6hWvfUNpbW/eI7PTMo05WvAyXwdIODyQvZpLOEmRmgVqCuRw91CR1ShZe0WuNmrSv81XMKSb+1mj3//nb8t3v/WNoPiZb2rP/9Oz9vaLd77jHpHHRSPpUEfWmJpNRcj+g7H0G6SspwzLzS7PMMb+EQdJDVZyrs0i5PH5v/N6P/hmnpTV9n524SSvAySc3O5LrXE150vTmCxQPyrM0Li0Yx1NAlLMrRBq0bv36l15+/t/Wh7/4IflsZ94QtfKO3/yA/b2297z4/Z+fVyeescNdWwcBDvT3INM3vG9RLHRiKWRYblpc/Xy+Dv83VUZ+Jl7yaHRIuTxxYY0G9I96zGWWb0OkJCdBeoOqfgFsrIqtf5tPntINbdC+NLz35Nn/vxPpf+ZT2Qut//i0A6ZTkQPep/2pLl3MDz2pmzvI3F8T48n2Ds9K1uy3+jK9ZvutjHTXL1wh6/bjpLcl0Qsnd4Ta3uPl10Yk/U6wNRMsUvNAtUTZzQtJXEcnmF55JhbIXz4kcvy+C/8slR/6dcylys/W5cHHn6de0YKPQvM7wGm7mDdEMkEPY2VrR3zwJYpd2rKXL2Unb4tpMk/Lj2w3xNZj53VVnDJod5IWtvrt/GWjjeP7nQyXweIs0OZOYcqUrNA7VmjKUXQsEOtq3zykG5uhVCHCC9eekD+4W/+Up75/FPy9b/6kq6Vv//yF+ztbz79VXu/Pi7TylVp9NeD4UZdwuEO/cCbnW3Qm9uUwdaRDExvLxqazNoR64kcpthZU+fq6Ukgejao24ZZ7NmSIyfvGKb3Omj3TTFckxva/fGHTe1SgOuaYsf2zD4nHM6N/VtS2t4++FSOwj1R1usAefy/xcTfu14+kZYFekO/mJr/Wt7faHD2cvCltzo86w6ImcvMMp976g/lLf/yX+W9/+7X5c7/+5q8+L078vDrL8ub33lFnvu/T8vLL35ffviNPyqvf9Obpf+ZP5FXXnxRnr38Udm4dt29AoCys5fm3NqR07Qvm9PQ6w6Tx+1RGlrXzi2P8NVXXpF/+ebX5eKDD5mC9xY7BKq3H/yh19vbFy5elDvf+obce/VV+far/9qse497JgDoUYZ9aeuI0P3MwqBFUM9WTjuzFHDm0iP8/OEfiww+4m6N9/D792Xt5z7kbgEAMBuT9AjnUgh1rtHn/vGb7tZ4b3307XL58mV3CwCA2Ti3QggAwCKYpBDO7RghAABFMNIjBABgmUw1NJq0tzd8MgAARcfQKAAACRRCAECp5Q6NAgCw7OgRAgBKjUIIACg1CiEAoNQohACAUqMQAgBKTOT/A9rChTWqwm7KAAAAAElFTkSuQmCC;" vertex="1" parent="1">
          <mxGeometry x="480" y="450" width="450" height="256" as="geometry" />
        </mxCell>
        <mxCell id="5o37a4prMIWbe8hypCf2-12" value="" style="edgeStyle=entityRelationEdgeStyle;fontSize=12;html=1;endArrow=ERzeroToMany;startArrow=ERmandOne;rounded=0;exitX=0;exitY=0.25;exitDx=0;exitDy=0;entryX=1;entryY=0.25;entryDx=0;entryDy=0;" edge="1" parent="1" source="5o37a4prMIWbe8hypCf2-5" target="5o37a4prMIWbe8hypCf2-4">
          <mxGeometry width="100" height="100" relative="1" as="geometry">
            <mxPoint x="200" y="560" as="sourcePoint" />
            <mxPoint x="300" y="460" as="targetPoint" />
          </mxGeometry>
        </mxCell>
        <mxCell id="5o37a4prMIWbe8hypCf2-14" value="" style="edgeStyle=entityRelationEdgeStyle;fontSize=12;html=1;endArrow=ERmandOne;startArrow=ERmandOne;rounded=0;entryX=0;entryY=0.5;entryDx=0;entryDy=0;exitX=1;exitY=0.25;exitDx=0;exitDy=0;" edge="1" parent="1" source="5o37a4prMIWbe8hypCf2-7" target="5o37a4prMIWbe8hypCf2-5">
          <mxGeometry width="100" height="100" relative="1" as="geometry">
            <mxPoint x="200" y="360" as="sourcePoint" />
            <mxPoint x="300" y="260" as="targetPoint" />
          </mxGeometry>
        </mxCell>
        <mxCell id="5o37a4prMIWbe8hypCf2-15" value="" style="edgeStyle=entityRelationEdgeStyle;fontSize=12;html=1;endArrow=ERmandOne;startArrow=ERmandOne;rounded=0;entryX=0;entryY=0.75;entryDx=0;entryDy=0;exitX=1;exitY=0.25;exitDx=0;exitDy=0;" edge="1" parent="1" source="5o37a4prMIWbe8hypCf2-6" target="5o37a4prMIWbe8hypCf2-5">
          <mxGeometry width="100" height="100" relative="1" as="geometry">
            <mxPoint x="200" y="460" as="sourcePoint" />
            <mxPoint x="300" y="360" as="targetPoint" />
          </mxGeometry>
        </mxCell>
        <mxCell id="5o37a4prMIWbe8hypCf2-16" value="" style="edgeStyle=entityRelationEdgeStyle;fontSize=12;html=1;endArrow=ERmandOne;startArrow=ERmandOne;rounded=0;entryX=0;entryY=1;entryDx=0;entryDy=0;" edge="1" parent="1" source="5o37a4prMIWbe8hypCf2-8" target="5o37a4prMIWbe8hypCf2-5">
          <mxGeometry width="100" height="100" relative="1" as="geometry">
            <mxPoint x="200" y="460" as="sourcePoint" />
            <mxPoint x="300" y="360" as="targetPoint" />
          </mxGeometry>
        </mxCell>
        <mxCell id="5o37a4prMIWbe8hypCf2-17" value="" style="edgeStyle=entityRelationEdgeStyle;fontSize=12;html=1;endArrow=ERmandOne;startArrow=ERmandOne;rounded=0;" edge="1" parent="1" source="5o37a4prMIWbe8hypCf2-10" target="5o37a4prMIWbe8hypCf2-5">
          <mxGeometry width="100" height="100" relative="1" as="geometry">
            <mxPoint x="672" y="270" as="sourcePoint" />
            <mxPoint x="300" y="360" as="targetPoint" />
            <Array as="points">
              <mxPoint x="576" y="200" />
              <mxPoint x="576" y="210" />
            </Array>
          </mxGeometry>
        </mxCell>
      </root>
    </mxGraphModel>
  </diagram>
</mxfile>
